<?xml version="1.0" encoding="UTF-8"?>
<svg version="1.1" xmlns="http://www.w3.org/2000/svg" width="500" height="500">
<path d="M0 0 C1.59134766 1.15628906 1.59134766 1.15628906 3.21484375 2.3359375 C9.95957136 7.38722561 16.52209283 12.61208268 23 18 C24.08654059 18.87586783 25.17380667 19.75083628 26.26171875 20.625 C33.47063482 26.47896705 39.32327107 32.6077231 45 40 C45.94019036 41.15805978 46.88442434 42.31284483 47.83203125 43.46484375 C57.09608851 54.76038715 65.59469118 66.47011368 72.8125 79.1875 C73.14918701 79.77974365 73.48587402 80.3719873 73.83276367 80.98217773 C79.81675003 91.82586862 84.32672427 103.08262654 88.0625 114.875 C88.27688721 115.54509094 88.49127441 116.21518188 88.7121582 116.90557861 C91.4982436 125.64872044 94.03514954 134.40499685 96 143.375 C96.18312744 144.2088623 96.36625488 145.04272461 96.55493164 145.90185547 C99.44712915 160.12773891 100.41437222 174.3911595 100.375 188.875 C100.37412384 189.67370514 100.37324768 190.47241028 100.37234497 191.2953186 C100.19756193 240.04285161 84.46249734 287.29946219 55 326 C54.38382812 326.81984375 53.76765625 327.6396875 53.1328125 328.484375 C51.45456535 330.68456504 49.73718026 332.84604401 48 335 C47.23816406 335.9590625 46.47632813 336.918125 45.69140625 337.90625 C24.41295038 364.20190759 -6.12781352 387.45037548 -37.95458984 399.23486328 C-40.10072309 400.03767799 -42.23166614 400.87429264 -44.36328125 401.71484375 C-105.75840093 425.59108784 -169.55952726 420.51584368 -229.17675781 394.29199219 C-239.94416443 389.36453492 -249.58612952 383.16085574 -259 376 C-260.77003 374.74886272 -262.54088202 373.49888768 -264.3125 372.25 C-281.73612072 359.52210685 -297.23262531 344.38785536 -310 327 C-310.64727051 326.12794922 -310.64727051 326.12794922 -311.30761719 325.23828125 C-319.73772198 313.84726717 -327.48802294 302.18604036 -333.09277344 289.11523438 C-333.76687712 287.54353515 -334.44838585 285.97500772 -335.13378906 284.40820312 C-359.66114046 228.21966551 -363.80455356 165.64467005 -341.16992188 107.90820312 C-329.93774599 79.98715156 -315.79495948 57.5845127 -296 35 C-295.55978516 34.49130371 -295.11957031 33.98260742 -294.66601562 33.45849609 C-287.74030209 25.483815 -280.28614081 18.54419377 -272 12 C-271.37963867 11.50999512 -270.75927734 11.01999023 -270.12011719 10.51513672 C-251.56843233 -4.0078355 -231.42268652 -16.63399457 -209.04785156 -24.29394531 C-206.95805026 -25.01446336 -204.88178986 -25.76716904 -202.8046875 -26.5234375 C-137.36108678 -49.86924744 -56.67077912 -41.33523824 0 0 Z " fill="#FBCE32" transform="translate(375,63)"/>
<path d="M0 0 C15.18 0 30.36 0 46 0 C46.22119369 32.40487517 45.92206587 64.64692855 44 97 C52.16389273 92.36623974 60.28537223 87.68077425 68.3125 82.8125 C84.27301092 73.13525741 84.27301092 73.13525741 90.59375 70.50390625 C95.28515656 68.43258569 99.23559101 65.55526849 103.39453125 62.58398438 C107.53286266 59.71799709 111.08313293 58.1215019 116 57 C116 56.34 116 55.68 116 55 C117.57421875 53.7109375 117.57421875 53.7109375 119.6875 52.375 C120.37199219 51.92898437 121.05648437 51.48296875 121.76171875 51.0234375 C124.45677166 49.79114455 126.06167734 49.64263262 129 50 C130.55810547 51.62963867 130.55810547 51.62963867 131.8671875 53.91796875 C132.35719238 54.75465088 132.84719727 55.59133301 133.35205078 56.45336914 C133.85462402 57.35563232 134.35719727 58.25789551 134.875 59.1875 C135.3994873 60.09556396 135.92397461 61.00362793 136.46435547 61.93920898 C139.99181317 68.08260146 143.41341091 74.28834076 146.6953125 80.56640625 C148.02865577 83.1466964 148.02865577 83.1466964 150 86 C150 87.32 150 88.64 150 90 C149.05898438 90.44730469 148.11796875 90.89460938 147.1484375 91.35546875 C145.89041125 91.96570537 144.63261071 92.57640747 143.375 93.1875 C142.75753906 93.47947266 142.14007813 93.77144531 141.50390625 94.07226562 C138.31852769 95.63142461 135.5707011 97.23644256 132.8828125 99.5625 C130.13838052 101.88299533 127.74004082 103.30624507 124.5 104.8125 C116.09479319 108.87379545 107.5145758 113.21075405 100.0625 118.875 C96.62071607 121.2631766 94.04408221 122.09214481 90 123 C90 123.66 90 124.32 90 125 C86.83759058 127.4508673 83.96935529 129.09417125 80.1875 130.375 C75.2578265 132.08179218 71.2168598 134.98377389 67 138 C77.23443429 144.864466 77.23443429 144.864466 88.3203125 150.17578125 C90 151 90 151 91 153 C92.74006246 153.9542278 94.51881372 154.83834891 96.3125 155.6875 C101.81956611 158.36217292 107.06992946 161.31979412 112.30859375 164.484375 C114.82367365 165.90070446 117.29672276 166.99914962 120 168 C120 168.66 120 169.32 120 170 C120.886875 170.268125 121.77375 170.53625 122.6875 170.8125 C125.7909666 171.9250635 128.31110685 173.10195778 131 175 C131 175.66 131 176.32 131 177 C131.69867188 177.0928125 132.39734375 177.185625 133.1171875 177.28125 C136.57850593 178.14423454 139.08551307 179.64126614 142.125 181.5 C146.39682408 184.10606892 146.39682408 184.10606892 151 186 C150.43683419 190.21613321 149.00199551 192.8746986 146.625 196.375 C143.89514989 200.51991526 141.83636051 204.40909872 140 209 C138.4375 211.9375 138.4375 211.9375 137 214 C136.34 214 135.68 214 135 214 C134.7525 214.86625 134.505 215.7325 134.25 216.625 C132.93221387 220.18302254 131.19813178 222.9226155 129 226 C125.8076253 225.62442651 123.97893022 224.98591317 121.27734375 223.1796875 C117.27548564 220.51814182 113.10645528 218.51913379 108.77148438 216.46875 C104.10370072 214.20740143 104.10370072 214.20740143 103 212 C100.99391866 211.07891946 100.99391866 211.07891946 98.5625 210.25 C92.95064871 208.10146265 88.07953853 205.17577871 83 202 C79.39587891 199.87749657 75.77274078 197.81091557 72 196 C72 195.34 72 194.68 72 194 C70.71222656 193.61328125 70.71222656 193.61328125 69.3984375 193.21875 C65.87281736 191.95438967 62.85842187 190.38416682 59.625 188.5 C58.56539062 187.8915625 57.50578125 187.283125 56.4140625 186.65625 C55.61742187 186.1096875 54.82078125 185.563125 54 185 C54 184.34 54 183.68 54 183 C53.38511719 182.80664062 52.77023437 182.61328125 52.13671875 182.4140625 C51.32847656 182.15367187 50.52023437 181.89328125 49.6875 181.625 C48.88699219 181.36976563 48.08648437 181.11453125 47.26171875 180.8515625 C45 180 45 180 42 178 C42.00523682 178.65051331 42.01047363 179.30102661 42.01586914 179.97125244 C42.15548196 200.43204176 41.68534909 220.84967588 41.07287598 241.29907227 C40.9492408 245.45710771 40.8303246 249.6152783 40.7109375 253.7734375 C40.47841404 261.84909271 40.24092402 269.92459105 40 278 C28.77640257 278.05822878 17.59178388 277.93412239 6.375 277.5 C5.07304687 277.45230469 3.77109375 277.40460938 2.4296875 277.35546875 C-0.71366297 277.23990439 -3.85687091 277.12141119 -7 277 C-7.02932237 273.33335046 -7.04690637 269.6667316 -7.0625 266 C-7.07087891 264.97003906 -7.07925781 263.94007813 -7.08789062 262.87890625 C-7.10619499 257.13133547 -6.7757502 251.68883478 -6 246 C-5.75946766 242.71113332 -5.6276019 239.41997746 -5.5 236.125 C-5.46011963 235.14208984 -5.42023926 234.15917969 -5.37915039 233.14648438 C-4.70604405 215.43840797 -4.38713586 197.71613382 -4 180 C-5.01537842 180.61560791 -6.03075684 181.23121582 -7.0769043 181.86547852 C-8.43010985 182.68256362 -9.78338504 183.49953342 -11.13671875 184.31640625 C-11.80344604 184.72105103 -12.47017334 185.1256958 -13.15710449 185.54260254 C-17.71130737 188.28739148 -22.32402033 190.77454216 -27.14453125 193.02734375 C-29.17062368 193.97197388 -29.17062368 193.97197388 -31 196 C-35.14069011 198.03128194 -38.35463118 199.42230626 -43 199 C-43.226875 199.598125 -43.45375 200.19625 -43.6875 200.8125 C-45.34703745 203.57839575 -47.20498395 204.46274117 -50 206 C-50.66 206.66 -51.32 207.32 -52 208 C-52.763125 208.28875 -53.52625 208.5775 -54.3125 208.875 C-57.07885363 209.88171423 -57.07885363 209.88171423 -59.28125 211.875 C-62.13418647 214.10488138 -64.92134147 215.5750962 -68.1875 217.125 C-72.42574982 219.09169649 -72.42574982 219.09169649 -76 222 C-77.134375 222.474375 -78.26875 222.94875 -79.4375 223.4375 C-82.57238254 224.81244848 -83.76070028 225.64873529 -86 228 C-86.99 228 -87.98 228 -89 228 C-89.51949219 226.92621094 -90.03898437 225.85242188 -90.57421875 224.74609375 C-91.2783165 223.30973435 -91.98276225 221.8735455 -92.6875 220.4375 C-93.19700195 219.38079102 -93.19700195 219.38079102 -93.71679688 218.30273438 C-95.78057839 214.11730831 -98.05902068 210.36969865 -100.83764648 206.62329102 C-102.51449569 204.28147829 -103.84642609 201.79552367 -105.1875 199.25 C-106.7024155 196.38804883 -108.20156639 193.69765042 -110 191 C-109.78124645 188.53188931 -109.37860516 187.37753566 -107.6171875 185.62109375 C-103.55662112 182.86245785 -99.53121453 180.92996174 -95 179 C-94.21625 178.360625 -93.4325 177.72125 -92.625 177.0625 C-89.66306226 174.73526321 -86.76495522 173.49885558 -83.28125 172.125 C-80.89148984 171.05075443 -80.89148984 171.05075443 -78.72265625 169.15625 C-74.72405253 165.98949354 -70.28317476 163.75302225 -65.79492188 161.35546875 C-61.93969976 159.24867131 -59.06327524 157.19738176 -56 154 C-54.37333775 153.56843655 -52.74530066 153.14109289 -51.109375 152.74609375 C-47.34718417 151.41539292 -44.18017965 149.07549611 -40.8671875 146.88671875 C-36.66100527 144.11889039 -32.33166411 141.56517202 -28 139 C-31.54628513 136.02400472 -35.1576962 133.64770923 -39.1875 131.375 C-44.78753541 128.21246459 -44.78753541 128.21246459 -47 126 C-48.7103951 125.2763713 -50.42172459 124.55474903 -52.140625 123.8515625 C-54.96376286 122.55861281 -57.41999206 120.72000529 -60 119 C-61.03511719 118.56945312 -62.07023437 118.13890625 -63.13671875 117.6953125 C-67.6034883 115.82779644 -71.67141964 113.36754967 -75.8125 110.875 C-77.31873344 109.97609822 -78.82523116 109.0776391 -80.33203125 108.1796875 C-80.98921143 107.78507324 -81.6463916 107.39045898 -82.32348633 106.98388672 C-83.52448467 106.27906317 -84.75447256 105.62276372 -86 105 C-86 104.34 -86 103.68 -86 103 C-86.804375 102.773125 -87.60875 102.54625 -88.4375 102.3125 C-92.09153976 100.96627483 -95.25049451 99.30054222 -98.61328125 97.359375 C-100.235242 96.43557411 -101.8801323 95.55114605 -103.54296875 94.703125 C-104.35378906 94.28546875 -105.16460937 93.8678125 -106 93.4375 C-106.7425 93.06496094 -107.485 92.69242187 -108.25 92.30859375 C-110 91 -110 91 -110.87890625 89.0703125 C-111.03206316 86.45182343 -110.44009751 85.56503103 -108.9375 83.4375 C-106.88781093 80.37976712 -105.04160582 77.31321894 -103.3125 74.0625 C-100.54830599 68.97207519 -97.74392943 63.90705703 -94.875 58.875 C-94.45516846 58.11582275 -94.03533691 57.35664551 -93.6027832 56.57446289 C-93.19503662 55.86668701 -92.78729004 55.15891113 -92.3671875 54.4296875 C-92.00737793 53.79272949 -91.64756836 53.15577148 -91.27685547 52.49951172 C-89.66483676 50.60639147 -88.41408484 50.37232788 -86 50 C-86 50.66 -86 51.32 -86 52 C-85.21625 52.20625 -84.4325 52.4125 -83.625 52.625 C-79.62332688 54.14287601 -76.30079741 56.1603359 -72.67578125 58.41015625 C-69.19776155 60.47665847 -65.59559491 62.2079899 -61.93359375 63.921875 C-60 65 -60 65 -59 67 C-56.69034152 68.05352843 -54.3570226 69.05719096 -52 70 C-52 70.66 -52 71.32 -52 72 C-50.7625 72.37125 -50.7625 72.37125 -49.5 72.75 C-43.73824769 74.80776868 -38.66882231 77.47709986 -33.625 80.9375 C-29.78882086 83.56052847 -25.86956132 85.62800799 -21.6875 87.640625 C-17.59459083 89.71087557 -13.68962693 92.08408312 -9.76171875 94.44921875 C-7.22064443 95.87610207 -4.72953385 96.99071881 -2 98 C-2.01160156 96.741875 -2.02320313 95.48375 -2.03515625 94.1875 C-2.04455389 92.45833485 -2.05365192 90.72916805 -2.0625 89 C-2.07087891 88.18015625 -2.07925781 87.3603125 -2.08789062 86.515625 C-2.10718659 81.42149124 -1.90495967 76.39299752 -1.53125 71.3125 C-0.61619528 58.28992878 -0.64764282 45.20997193 -0.46777344 32.16052246 C-0.4168496 28.52624419 -0.36158107 24.8920319 -0.30664062 21.2578125 C-0.19982838 14.17192833 -0.10007265 7.08599525 0 0 Z " fill="#FEF49A" transform="translate(230,114)"/>
<path d="M0 0 C2.14453125 0.05078125 2.14453125 0.05078125 4.8125 0.3125 C6.12154297 0.43044922 6.12154297 0.43044922 7.45703125 0.55078125 C9.98613225 0.99755024 11.78213548 1.73338739 14 3 C13.87882812 3.85078125 13.75765625 4.7015625 13.6328125 5.578125 C12.43723877 14.22304274 11.47410992 22.86628041 10.69775391 31.55957031 C10.10650496 37.89349504 10.10650496 37.89349504 9 39 C6.64686445 39.07271741 4.29166332 39.08370868 1.9375 39.0625 C0.64714844 39.05347656 -0.64320312 39.04445312 -1.97265625 39.03515625 C-2.97167969 39.02355469 -3.97070312 39.01195312 -5 39 C-5.66546117 26.09744723 -4.20598142 13.53247284 -1 1 C-0.67 0.67 -0.34 0.34 0 0 Z " fill="#FEE83C" transform="translate(41,206)"/>
<path d="M0 0 C1.703125 2.08203125 1.703125 2.08203125 3.25 4.8125 C4.03117187 6.15248047 4.03117187 6.15248047 4.828125 7.51953125 C6 10 6 10 6 13 C4.02 13.66 2.04 14.32 0 15 C0 15.66 0 16.32 0 17 C-2.5614657 19.29648649 -3.47967572 20 -7 20 C-7 20.66 -7 21.32 -7 22 C-8.98600337 23.3540932 -10.98817543 24.68457624 -13 26 C-14.35308313 27.31328657 -15.68870078 28.64499081 -17 30 C-20.53571429 33 -20.53571429 33 -24 33 C-26.5 30.6875 -26.5 30.6875 -29 28 C-29.598125 27.46375 -30.19625 26.9275 -30.8125 26.375 C-32 25 -32 25 -32 22 C-31.34 22 -30.68 22 -30 22 C-30 21.34 -30 20.68 -30 20 C-28.28667246 18.41466298 -26.50310953 16.90458785 -24.6875 15.4375 C-23.70136719 14.63183594 -22.71523437 13.82617188 -21.69921875 12.99609375 C-19 11 -19 11 -16 10 C-16 9.34 -16 8.68 -16 8 C-14.13671875 6.5625 -14.13671875 6.5625 -11.6875 5 C-10.48673828 4.2265625 -10.48673828 4.2265625 -9.26171875 3.4375 C-8.51535156 2.963125 -7.76898438 2.48875 -7 2 C-4 0 -4 0 0 0 Z " fill="#FEE83C" transform="translate(136,74)"/>
<path d="M0 0 C8.24118726 -0.26584475 15.87581294 0.08292828 24 1.375 C24.80026611 1.50108643 25.60053223 1.62717285 26.42504883 1.75708008 C30.7784029 2.48987716 34.84174157 3.46730859 39 5 C38.39456125 9.94441643 37.39004992 14.13482528 36 19 C24.12 17.68 12.24 16.36 0 15 C0 10.05 0 5.1 0 0 Z " fill="#FEE83C" transform="translate(255,41)"/>
<path d="M0 0 C4.95 0 9.9 0 15 0 C15.12117188 1.50949219 15.24234375 3.01898438 15.3671875 4.57421875 C16.23538289 15.11746476 17.12004222 25.580234 19 36 C17.60764957 36.50961846 16.21090882 37.00724909 14.8125 37.5 C14.03519531 37.7784375 13.25789063 38.056875 12.45703125 38.34375 C9.86777221 39.0353168 7.66742762 39.11370917 5 39 C4.34807312 36.50145233 3.70336936 34.0013863 3.0625 31.5 C2.88009766 30.80390625 2.69769531 30.1078125 2.50976562 29.390625 C-0.00477602 19.51533416 -0.09076952 10.16618608 0 0 Z " fill="#FEE93B" transform="translate(36,260)"/>
<path d="M0 0 C1.9375 0.8125 1.9375 0.8125 4 2 C4.33 2.99 4.66 3.98 5 5 C5.66 5 6.32 5 7 5 C8.37310707 6.29233607 9.71034824 7.62437146 11 9 C9.42530227 13.27994767 6.16708335 15.69447519 2.75 18.5 C2.18925781 18.97308594 1.62851562 19.44617188 1.05078125 19.93359375 C-8.62443733 28 -8.62443733 28 -12 28 C-12 28.66 -12 29.32 -12 30 C-16.9533861 33.94019349 -16.9533861 33.94019349 -20.1875 34.125 C-22.97421476 32.39531498 -23.70432842 29.94470813 -25 27 C-25.66 26.01 -26.32 25.02 -27 24 C-26.90625 22.01953125 -26.90625 22.01953125 -26 20 C-24.03125 18.32421875 -24.03125 18.32421875 -21.5 16.6875 C-17.12041586 13.7782497 -12.99578337 10.68987184 -8.91015625 7.3828125 C-7 6 -7 6 -4 5 C-4 4.34 -4 3.68 -4 3 C-2 1.375 -2 1.375 0 0 Z " fill="#FEE83C" transform="translate(380,397)"/>
<path d="M0 0 C3.21852831 0.63065757 5.50801069 1.78020695 8.25 3.5625 C8.95640625 4.01753906 9.6628125 4.47257812 10.390625 4.94140625 C11.18726563 5.46541016 11.18726563 5.46541016 12 6 C11.42365861 10.75481646 9.44931479 13.97048212 7 18 C6.34 18 5.68 18 5 18 C4.74863281 18.54785156 4.49726563 19.09570312 4.23828125 19.66015625 C0.64561218 26.44882746 -4.30891872 32.84245759 -10 38 C-14.56749627 36.13916819 -17.88579746 32.96311877 -20.3125 28.6875 C-20.539375 28.130625 -20.76625 27.57375 -21 27 C-19.71937515 25.2925002 -18.38232443 23.62626404 -17 22 C-16.34 22 -15.68 22 -15 22 C-14.773125 21.319375 -14.54625 20.63875 -14.3125 19.9375 C-11.84404381 14.41285996 -8.24771589 10.24771589 -4 6 C-2.63178949 4.02369593 -1.29048808 2.02790984 0 0 Z " fill="#FEE83C" transform="translate(413,358)"/>
<path d="M0 0 C1.75 0.0625 1.75 0.0625 4 1 C5.7143618 2.95927063 7.38405168 4.95880212 9 7 C9.66 7.33 10.32 7.66 11 8 C10.67 9.65 10.34 11.3 10 13 C9.34 13 8.68 13 8 13 C8 13.66 8 14.32 8 15 C7.34 15 6.68 15 6 15 C6 15.66 6 16.32 6 17 C5.34 17 4.68 17 4 17 C3.7525 17.721875 3.505 18.44375 3.25 19.1875 C1.87301736 22.28571093 0.19160333 24.42164314 -2 27 C-5.07927669 30.67096594 -5.07927669 30.67096594 -7 35 C-7.66 35 -8.32 35 -9 35 C-9 35.99 -9 36.98 -9 38 C-12.29680965 37.34215037 -14.84117922 36.10579427 -17.75 34.4375 C-18.54921875 33.98246094 -19.3484375 33.52742188 -20.171875 33.05859375 C-21.07679687 32.53458984 -21.07679687 32.53458984 -22 32 C-21.43636981 28.38390069 -20.52225472 25.77542213 -18.5625 22.6875 C-18.13066406 21.99011719 -17.69882813 21.29273438 -17.25390625 20.57421875 C-16.63322266 19.79498047 -16.63322266 19.79498047 -16 19 C-15.34 19 -14.68 19 -14 19 C-13.731875 18.195625 -13.46375 17.39125 -13.1875 16.5625 C-12.795625 15.716875 -12.40375 14.87125 -12 14 C-11.01 13.67 -10.02 13.34 -9 13 C-7.77479736 9.99152582 -7.77479736 9.99152582 -7 7 C-6.34 7 -5.68 7 -5 7 C-5 6.34 -5 5.68 -5 5 C-4.34 5 -3.68 5 -3 5 C-2.690625 4.360625 -2.38125 3.72125 -2.0625 3.0625 C-1 1 -1 1 0 0 Z " fill="#FEE83C" transform="translate(91,109)"/>
<path d="M0 0 C8.7867458 3.64279667 14.85661271 13.913316 20.125 21.5 C20.8531189 22.54148193 20.8531189 22.54148193 21.59594727 23.60400391 C25 28.62354973 25 28.62354973 25 32 C23.71086513 32.67154933 22.41859796 33.33708859 21.125 34 C20.40570313 34.37125 19.68640625 34.7425 18.9453125 35.125 C17 36 17 36 15 36 C15 36.66 15 37.32 15 38 C14.01 38 13.02 38 12 38 C10.34375 35.83203125 10.34375 35.83203125 8.5 32.8125 C4.91121897 27.18159543 0.93403977 22.1825066 -3.49414062 17.19067383 C-7 13.19575451 -7 13.19575451 -7 11 C-7.66 11 -8.32 11 -9 11 C-9 8 -9 8 -7.28515625 6.2109375 C-6.18494141 5.30214844 -6.18494141 5.30214844 -5.0625 4.375 C-4.33160156 3.76398438 -3.60070312 3.15296875 -2.84765625 2.5234375 C-2.23792969 2.02070312 -1.62820313 1.51796875 -1 1 C-0.67 0.67 -0.34 0.34 0 0 Z " fill="#FEE83C" transform="translate(401,109)"/>
<path d="M0 0 C3.27346607 3.09652196 5.97509956 5.95019912 8 10 C8 10.99 8 11.98 8 13 C6.39967863 13.84069415 4.79458829 14.67231505 3.1875 15.5 C2.29417969 15.9640625 1.40085937 16.428125 0.48046875 16.90625 C-2 18 -2 18 -5 18 C-5 18.66 -5 19.32 -5 20 C-5.61746094 20.17015625 -6.23492187 20.3403125 -6.87109375 20.515625 C-12.13372178 22.02152161 -16.99746893 23.77734372 -21.89453125 26.23046875 C-24.36880716 27.13479594 -26.38578195 27.13230772 -29 27 C-29.50692692 25.4188708 -30.00526443 23.83498617 -30.5 22.25 C-30.91765625 20.92742187 -30.91765625 20.92742187 -31.34375 19.578125 C-32 17 -32 17 -32 13 C-27.1171875 11.046875 -22.234375 9.09375 -17.3515625 7.140625 C-16.4740332 6.78935547 -15.59650391 6.43808594 -14.69238281 6.07617188 C-12.85390282 5.34131335 -11.01467551 4.60832245 -9.17480469 3.87695312 C-7.83144043 3.34231445 -7.83144043 3.34231445 -6.4609375 2.796875 C-5.65188965 2.47557617 -4.8428418 2.15427734 -4.00927734 1.82324219 C-1.97883648 1.02055155 -1.97883648 1.02055155 0 0 Z " fill="#FEE83C" transform="translate(338,427)"/>
<path d="M0 0 C0 0.66 0 1.32 0 2 C0.99 2.33 1.98 2.66 3 3 C3 3.66 3 4.32 3 5 C3.57145752 5.27094482 4.14291504 5.54188965 4.73168945 5.82104492 C8.79970659 7.93539803 12.45113811 10.66798935 16.1875 13.3125 C17.01958984 13.88162109 17.85167969 14.45074219 18.70898438 15.03710938 C19.89524414 15.87918945 19.89524414 15.87918945 21.10546875 16.73828125 C21.82887451 17.24399658 22.55228027 17.74971191 23.29760742 18.27075195 C25.45446001 20.46162918 25.75948326 21.96815964 26 25 C25.00390625 27.45703125 25.00390625 27.45703125 23.5625 29.8125 C23.08941406 30.60269531 22.61632812 31.39289063 22.12890625 32.20703125 C21.75636719 32.79871094 21.38382813 33.39039063 21 34 C12.95433133 32.43055342 6.27862508 25.73218757 0.1640625 20.63671875 C-1.99134794 18.8250788 -1.99134794 18.8250788 -5 18 C-6.60546875 16.37109375 -6.60546875 16.37109375 -8.1875 14.4375 C-8.71730469 13.79683594 -9.24710937 13.15617187 -9.79296875 12.49609375 C-10.19128906 12.00238281 -10.58960937 11.50867188 -11 11 C-9.60249952 7.84164893 -7.94801766 5.67727175 -5.5 3.25 C-4.8915625 2.63640625 -4.283125 2.0228125 -3.65625 1.390625 C-2 0 -2 0 0 0 Z " fill="#FEE83C" transform="translate(115,397)"/>
<path d="M0 0 C0.15855469 0.58265625 0.31710938 1.1653125 0.48046875 1.765625 C2.92649392 10.36049798 6.16197841 18.58162903 10.3125 26.5 C12 30 12 30 12 34 C9.91796875 35.73828125 9.91796875 35.73828125 7.1875 37.3125 C6.29417969 37.84488281 5.40085937 38.37726563 4.48046875 38.92578125 C2 40 2 40 -1 39 C-3.94265013 34.74837792 -5.48686537 30.13134625 -6 25 C-6.66 25 -7.32 25 -8 25 C-9.01250775 22.46270379 -10.01009573 19.92110512 -11 17.375 C-11.28617188 16.66214844 -11.57234375 15.94929688 -11.8671875 15.21484375 C-13.49899056 10.97992628 -14.34956986 7.61723525 -14 3 C-12.4188708 2.49307308 -10.83498617 1.99473557 -9.25 1.5 C-7.92742188 1.08234375 -7.92742188 1.08234375 -6.578125 0.65625 C-4 0 -4 0 0 0 Z " fill="#FEE83C" transform="translate(60,311)"/>
<path d="M0 0 C1.58357459 0.31127516 3.16684993 0.62407289 4.75 0.9375 C5.63171875 1.11152344 6.5134375 1.28554688 7.421875 1.46484375 C9.63235053 1.92368488 11.81512068 2.43336074 14 3 C13.50718421 9.65301313 11.62005914 14.90174389 9 21 C8.24514959 22.87305255 7.49496929 24.74799553 6.75 26.625 C6.16666667 28.08333333 5.58333333 29.54166667 5 31 C4.34 31 3.68 31 3 31 C2.87625 31.7425 2.7525 32.485 2.625 33.25 C2.04513299 35.80141485 1.26291261 37.7267573 0 40 C-4.49797113 38.31326082 -8.72886302 36.18326108 -13 34 C-12.41451192 30.36482678 -11.4181915 27.55419771 -9.6875 24.3125 C-5.65967927 16.4890096 -2.66989328 8.37375621 0 0 Z " fill="#FEE83C" transform="translate(435,311)"/>
<path d="M0 0 C6.42142623 1.17934882 12.08127405 3.07979805 18 5.8125 C18.78165527 6.16634766 19.56331055 6.52019531 20.36865234 6.88476562 C25.73442485 9.34114178 30.92031218 11.98981463 36 15 C35.58221009 20.7097955 33.42453429 23.60957142 30 28 C26.1455417 26.48549217 22.35547569 24.84939339 18.5625 23.1875 C11.48765708 20.11735698 4.29295053 17.50487358 -3 15 C-2.5547115 9.72684667 -1.91626837 4.98229776 0 0 Z " fill="#FEE93C" transform="translate(309,50)"/>
<path d="M0 0 C0 4.95 0 9.9 0 15 C-1.94003906 15.20496094 -3.88007813 15.40992188 -5.87890625 15.62109375 C-8.44011118 15.89316314 -11.00130871 16.16530221 -13.5625 16.4375 C-14.83931641 16.57220703 -16.11613281 16.70691406 -17.43164062 16.84570312 C-19.29272461 17.04389648 -19.29272461 17.04389648 -21.19140625 17.24609375 C-22.32779541 17.36654053 -23.46418457 17.4869873 -24.63500977 17.61108398 C-28.10061759 18.0116291 -31.54870583 18.49161036 -35 19 C-37.05708887 13.90199716 -38.31421533 9.4929355 -39 4 C-36.02124032 3.51818638 -33.04203251 3.03949143 -30.0625 2.5625 C-29.23169922 2.42779297 -28.40089844 2.29308594 -27.54492188 2.15429688 C-18.27002742 0.67464445 -9.40212271 -0.11901421 0 0 Z " fill="#FEE83C" transform="translate(239,41)"/>
<path d="M0 0 C1.21679688 1.77490234 1.21679688 1.77490234 2.21875 4.0859375 C2.59201416 4.92954834 2.96527832 5.77315918 3.34985352 6.64233398 C3.72940186 7.54411377 4.1089502 8.44589355 4.5 9.375 C4.89437256 10.28515869 5.28874512 11.19531738 5.69506836 12.13305664 C13.2542406 29.73241655 13.2542406 29.73241655 13 36 C11.60582227 36.34019152 10.20955342 36.67181779 8.8125 37 C8.03519531 37.185625 7.25789063 37.37125 6.45703125 37.5625 C3.91780654 38.0146354 1.57333152 38.02998784 -1 38 C-1.3242395 37.16976318 -1.3242395 37.16976318 -1.6550293 36.32275391 C-2.66105401 33.75491923 -3.67312074 31.1895461 -4.6875 28.625 C-5.23071899 27.25021484 -5.23071899 27.25021484 -5.78491211 25.84765625 C-7.98741635 20.3387019 -10.32129578 15.02624632 -13.28515625 9.875 C-14.17527122 7.54027221 -13.8220292 6.31615774 -13 4 C-11.35 3.67 -9.7 3.34 -8 3 C-8 2.34 -8 1.68 -8 1 C-4.93564966 -0.86049842 -3.36463319 -1.37068512 0 0 Z " fill="#FEE93C" transform="translate(436,155)"/>
<path d="M0 0 C7.93914848 1.93432643 7.93914848 1.93432643 10.71875 4.7265625 C13.61601382 7.61390419 16.7707304 10.05947827 20 12.5625 C20.92425781 13.28469727 20.92425781 13.28469727 21.8671875 14.02148438 C22.46789062 14.49005859 23.06859375 14.95863281 23.6875 15.44140625 C24.25984375 15.8914502 24.8321875 16.34149414 25.421875 16.80517578 C27.102667 18.11421667 27.102667 18.11421667 29.4375 19.52734375 C31 21 31 21 31.484375 23.4453125 C30.86444217 26.71495823 29.76396345 27.73721357 27.25 29.875 C26.55390625 30.49117187 25.8578125 31.10734375 25.140625 31.7421875 C23 33 23 33 21.00390625 32.94140625 C18.39073683 31.71377695 16.74799686 30.0874097 14.6875 28.0625 C9.78979407 23.47319534 4.53603145 19.87992305 -1.1730957 16.36352539 C-2.83068048 15.31556322 -4.42260131 14.16517183 -6 13 C-6 9.32965255 -4.9247108 7.9000569 -3 4.8125 C-2.443125 3.91144531 -1.88625 3.01039062 -1.3125 2.08203125 C-0.6628125 1.05142578 -0.6628125 1.05142578 0 0 Z " fill="#FEE83C" transform="translate(359,74)"/>
<path d="M0 0 C1.3515625 1.51171875 1.3515625 1.51171875 2.625 3.6875 C5.24522881 7.90526627 8.0813985 11.83464401 11.125 15.75 C11.54475098 16.29229248 11.96450195 16.83458496 12.39697266 17.39331055 C14.33092891 19.88315506 16.28525652 22.33760157 18.3203125 24.74609375 C20 27 20 27 19.75 29.3125 C19.5025 29.869375 19.255 30.42625 19 31 C18.34 31 17.68 31 17 31 C17 31.66 17 32.32 17 33 C14.75 35.1875 14.75 35.1875 12 37 C7.2872252 36.61277802 5.26380378 33.33979915 2.36328125 29.953125 C-13.10976258 10.61821403 -13.10976258 10.61821403 -12.86328125 6.984375 C-11.75368889 4.4338188 -10.55575942 3.67359193 -8.1875 2.25 C-7.15689453 1.60804688 -7.15689453 1.60804688 -6.10546875 0.953125 C-4 0 -4 0 0 0 Z " fill="#FEE93C" transform="translate(82,358)"/>
<path d="M0 0 C3.67817783 0.56042289 6.21380426 1.5142096 9.3125 3.5625 C10.00988281 4.01753906 10.70726563 4.47257813 11.42578125 4.94140625 C12.20501953 5.46541016 12.20501953 5.46541016 13 6 C12.43798672 10.49610626 11.25522185 13.94821151 9.25 18 C5.975488 24.85749252 3.43598243 31.81061824 1 39 C-3.96916636 38.48594831 -8.29026351 37.76615118 -13 36 C-12.46557467 30.34137886 -11.38214214 25.53106529 -9.3125 20.25 C-9.05065918 19.56550781 -8.78881836 18.88101563 -8.51904297 18.17578125 C-6.07080397 11.91155566 -3.16902642 5.93349627 0 0 Z " fill="#FEE93C" transform="translate(59,154)"/>
<path d="M0 0 C0.99 0 1.98 0 3 0 C3 0.66 3 1.32 3 2 C3.67675781 2.10699219 4.35351562 2.21398437 5.05078125 2.32421875 C8.58887923 3.13493524 11.84408182 4.43092224 15.1875 5.8125 C16.51561914 6.35287898 17.84374416 6.89324352 19.171875 7.43359375 C20.14350586 7.83167236 20.14350586 7.83167236 21.13476562 8.23779297 C23.72982779 9.29823591 26.33336678 10.3370669 28.9375 11.375 C30.96875 12.1875 30.96875 12.1875 33 13 C32.03644647 22.41002278 32.03644647 22.41002278 31 27 C25.50082814 26.48029804 21.02870534 25.49311626 15.875 23.375 C14.92645142 22.98610596 14.92645142 22.98610596 13.95874023 22.58935547 C7.13614559 19.73723871 0.55604898 16.41439839 -6 13 C-4.48525928 8.18285158 -2.58417449 4.30695748 0 0 Z " fill="#FEE93C" transform="translate(155,427)"/>
<path d="M0 0 C0.50692692 1.5811292 1.00526443 3.16501383 1.5 4.75 C1.7784375 5.63171875 2.056875 6.5134375 2.34375 7.421875 C3 10 3 10 3 14 C-3.9941746 15.97867178 -10.97223455 16.83273556 -18.1875 17.625 C-19.34958984 17.7590625 -20.51167969 17.893125 -21.70898438 18.03125 C-26.52880602 18.57448464 -31.13979975 19 -36 19 C-36 14.05 -36 9.1 -36 4 C-33.12861328 3.69255859 -33.12861328 3.69255859 -30.19921875 3.37890625 C-27.69529365 3.10694435 -25.19138842 2.83479945 -22.6875 2.5625 C-21.42486328 2.42779297 -20.16222656 2.29308594 -18.86132812 2.15429688 C-17.65283203 2.02216797 -16.44433594 1.89003906 -15.19921875 1.75390625 C-13.52605591 1.57323608 -13.52605591 1.57323608 -11.8190918 1.38891602 C-1.50843426 -0.03352076 -1.50843426 -0.03352076 0 0 Z " fill="#FEE93C" transform="translate(291,445)"/>
<path d="M0 0 C12.043377 1.08235522 24.02632027 2.30675236 36 4 C36 8.95 36 13.9 36 19 C22.90404686 18.28826342 9.84099706 16.7310096 -3 14 C-2.69024532 12.22868439 -2.37709575 10.45796222 -2.0625 8.6875 C-1.88847656 7.70136719 -1.71445313 6.71523438 -1.53515625 5.69921875 C-1 3 -1 3 0 0 Z " fill="#FEE93C" transform="translate(203,445)"/>
<path d="M0 0 C4.29 0 8.58 0 13 0 C13.44886231 12.98375784 13.14868048 26.55395856 9 39 C3.57960425 39.40652968 -0.07015675 38.03993514 -5 36 C-4.24953098 29.05094548 -3.3992428 22.11879228 -2.5 15.1875 C-2.36980469 14.16462891 -2.23960937 13.14175781 -2.10546875 12.08789062 C-1.97785156 11.10369141 -1.85023438 10.11949219 -1.71875 9.10546875 C-1.54762695 7.77745239 -1.54762695 7.77745239 -1.37304688 6.42260742 C-1 4 -1 4 0 0 Z " fill="#FEE93C" transform="translate(445,260)"/>
<path d="M0 0 C0.34019152 1.39417773 0.67181779 2.79044658 1 4.1875 C1.185625 4.96480469 1.37125 5.74210937 1.5625 6.54296875 C2.01422743 9.07990225 2.07307143 11.42879903 2 14 C1.12859375 14.30292969 0.2571875 14.60585937 -0.640625 14.91796875 C-14.0782895 19.40365367 -14.0782895 19.40365367 -26.71484375 25.6484375 C-29 27 -29 27 -31 27 C-31.67154933 25.71086513 -32.33708859 24.41859796 -33 23.125 C-33.37125 22.40570313 -33.7425 21.68640625 -34.125 20.9453125 C-35 19 -35 19 -35 17 C-35.66 17 -36.32 17 -37 17 C-37 15.68 -37 14.36 -37 13 C-35.73160474 12.49384702 -34.46016898 11.99530901 -33.1875 11.5 C-32.47980469 11.2215625 -31.77210938 10.943125 -31.04296875 10.65625 C-29 10 -29 10 -26 10 C-26 9.34 -26 8.68 -26 8 C-23.81477184 7.03619618 -21.62704614 6.07890561 -19.4375 5.125 C-18.52387695 4.72087891 -18.52387695 4.72087891 -17.59179688 4.30859375 C-11.89879965 1.83861612 -6.30665312 -0.3822214 0 0 Z " fill="#FEE93C" transform="translate(186,51)"/>
<path d="M0 0 C2.77476896 13.24559522 4.12212269 25.44438159 4 39 C-0.62 39 -5.24 39 -10 39 C-10.20496094 37.15792969 -10.40992188 35.31585938 -10.62109375 33.41796875 C-10.89305907 31.0077933 -11.16520379 28.59763809 -11.4375 26.1875 C-11.57220703 24.97255859 -11.70691406 23.75761719 -11.84570312 22.50585938 C-11.97783203 21.34248047 -12.10996094 20.17910156 -12.24609375 18.98046875 C-12.36654053 17.90692139 -12.4869873 16.83337402 -12.61108398 15.72729492 C-12.92920961 12.91381776 -12.92920961 12.91381776 -14 10 C-14.03954234 7.66700175 -14.04401732 5.33291811 -14 3 C-12.23050388 2.49528803 -10.45934777 1.99639315 -8.6875 1.5 C-7.70136719 1.2215625 -6.71523438 0.943125 -5.69921875 0.65625 C-3 0 -3 0 0 0 Z " fill="#FEE93C" transform="translate(454,205)"/>
<path d="M0 0 C0.99 0.495 0.99 0.495 2 1 C-35.23742337 26.92016725 -80.82771835 40.50021455 -126.125 40.3125 C-126.92561859 40.31233887 -127.72623718 40.31217773 -128.55111694 40.31201172 C-141.5607273 40.2938593 -154.18879395 39.39408522 -167 37 C-167 36.67 -167 36.34 -167 36 C-161.64446623 35.80873094 -156.73160907 36.16748229 -151.4375 37 C-131.22435332 39.85353213 -109.99412896 38.67111914 -89.95947266 35.28125 C-87.62352849 34.94596372 -85.35601069 34.88483858 -83 35 C-83 34.34 -83 33.68 -83 33 C-79.7 33 -76.4 33 -73 33 C-73 32.34 -73 31.68 -73 31 C-69.65918186 29.10605687 -66.43481853 28.34190703 -62.6875 27.5625 C-57.76763621 26.47715491 -53.55924675 25.08965476 -49 23 C-46.0625 22.3125 -46.0625 22.3125 -44 22 C-43.67 20.68 -43.34 19.36 -43 18 C-42.25234375 17.86722656 -41.5046875 17.73445313 -40.734375 17.59765625 C-39.74953125 17.42105469 -38.7646875 17.24445313 -37.75 17.0625 C-36.77546875 16.88847656 -35.8009375 16.71445312 -34.796875 16.53515625 C-31.36066003 15.91279647 -31.36066003 15.91279647 -28 15 C-27.67 14.34 -27.34 13.68 -27 13 C-25.96875 12.87625 -24.9375 12.7525 -23.875 12.625 C-19.50396619 11.91999455 -16.64822066 10.34011992 -13 8 C-11.32595859 6.93342511 -9.6515698 5.86735389 -7.97119141 4.81079102 C-6.78989076 4.06685942 -5.61365713 3.31481531 -4.44287109 2.55444336 C-2.99880025 1.64180256 -1.50234202 0.81315575 0 0 Z " fill="#FADF93" transform="translate(374,440)"/>
<path d="M0 0 C0 0.33 0 0.66 0 1 C-0.55042969 0.93941406 -1.10085938 0.87882812 -1.66796875 0.81640625 C-17.47429583 -0.77647942 -33.31365736 -1.09822607 -49.1875 -1.125 C-49.90811615 -1.1275882 -50.6287323 -1.13017639 -51.3711853 -1.13284302 C-53.42849731 -1.13868324 -55.48565566 -1.13712509 -57.54296875 -1.1328125 C-58.73946045 -1.13168457 -59.93595215 -1.13055664 -61.16870117 -1.12939453 C-63.94978377 -1.19423865 -63.94978377 -1.19423865 -66 0 C-68.00800456 -0.28112064 -70.01014051 -0.61067967 -72 -1 C-72.33 -0.34 -72.66 0.32 -73 1 C-83.48364497 3.29551594 -95.28643698 2.55909513 -106 3 C-103.02929447 1.35609231 -100.38054611 0.55246088 -97.04296875 -0.03515625 C-95.62081055 -0.28942383 -95.62081055 -0.28942383 -94.16992188 -0.54882812 C-93.18572266 -0.71833984 -92.20152344 -0.88785156 -91.1875 -1.0625 C-89.72860352 -1.32256836 -89.72860352 -1.32256836 -88.24023438 -1.58789062 C-58.73878734 -6.80107795 -29.37021419 -5.48167811 0 0 Z " fill="#F8D680" transform="translate(296,29)"/>
<path d="M0 0 C13.73057093 20.5958564 15.19228146 53.91592893 15.13037109 78.06811523 C15.12500442 80.56044577 15.1303464 83.05259675 15.13671875 85.54492188 C15.13605797 87.15625039 15.13477681 88.7675788 15.1328125 90.37890625 C15.13483673 91.11041397 15.13686096 91.84192169 15.13894653 92.59559631 C15.11579654 97.7938801 14.64042364 102.84067849 14 108 C13.67 108 13.34 108 13 108 C12.96241577 106.11510864 12.96241577 106.11510864 12.92407227 104.19213867 C12.82997705 99.53480643 12.72976141 94.87762259 12.62768555 90.22045898 C12.58434471 88.20389271 12.54266902 86.18728993 12.50268555 84.1706543 C12.44496253 81.27381383 12.38127378 78.37715694 12.31640625 75.48046875 C12.29969376 74.57725388 12.28298126 73.674039 12.26576233 72.74345398 C12.24581711 71.90280899 12.22587189 71.062164 12.20532227 70.19604492 C12.18977798 69.45658127 12.1742337 68.71711761 12.15821838 67.95524597 C12.06087775 65.7848329 12.06087775 65.7848329 11 63 C10.741247 59.54277237 10.55711958 56.09143556 10.39453125 52.62890625 C10.52879645 49.01206879 10.52879645 49.01206879 9 46 C8.92794489 44.31391034 8.91613932 42.62499341 8.9375 40.9375 C8.94652344 40.01839844 8.95554687 39.09929687 8.96484375 38.15234375 C8.97644531 37.44207031 8.98804688 36.73179687 9 36 C8.34 36 7.68 36 7 36 C6.95101563 35.41992188 6.90203125 34.83984375 6.8515625 34.2421875 C6.40035942 29.52789329 5.58746754 25.4822613 4 21 C3.65109378 19.48266365 3.31884665 17.96143634 3 16.4375 C2.46323418 13.88573235 1.90735621 11.78383115 0.875 9.375 C-0.29544002 6.19809138 -0.13153884 3.35424039 0 0 Z " fill="#F7D780" transform="translate(460,172)"/>
<path d="M0 0 C0.33 0 0.66 0 1 0 C1.27170587 20.95154122 1.27170587 20.95154122 -0.95654297 26.29296875 C-4.34582932 35.08576404 -4.31668044 44.76613544 -4.25 54.0625 C-4.25773437 55.17560547 -4.26546875 56.28871094 -4.2734375 57.43554688 C-4.26957031 59.03172852 -4.26957031 59.03172852 -4.265625 60.66015625 C-4.26336914 61.61543213 -4.26111328 62.57070801 -4.25878906 63.55493164 C-4.16405987 66.25662346 -4.16405987 66.25662346 -2 69 C-1.90595914 71.92408308 -1.91263133 74.76869675 -2 77.6875 C-2.13059396 85.44893648 -1.59277347 92.81464281 -0.4375 100.484375 C0.00346825 104.02786989 0.07316532 107.43319059 0 111 C-0.33 111 -0.66 111 -1 111 C-1.82516752 106.62729409 -2.63270342 102.2514971 -3.4375 97.875 C-3.66759766 96.65683594 -3.89769531 95.43867188 -4.13476562 94.18359375 C-9.92556907 62.46006186 -6.8041752 31.24088443 0 0 Z " fill="#FBE49F" transform="translate(26,195)"/>
<path d="M0 0 C-0.80824219 0.32613281 -1.61648437 0.65226562 -2.44921875 0.98828125 C-3.51785156 1.42527344 -4.58648437 1.86226562 -5.6875 2.3125 C-7.27111328 2.95638672 -7.27111328 2.95638672 -8.88671875 3.61328125 C-11.75658399 4.89157756 -14.33045631 6.35401192 -17 8 C-18.66666667 8.66666667 -20.33333333 9.33333333 -22 10 C-23.6829392 10.97236487 -25.35443434 11.96564444 -27 13 C-27 12.34 -27 11.68 -27 11 C-33.82329409 12.59556116 -39.83522177 14.66582429 -46.00390625 18.01171875 C-48 19 -48 19 -50 19 C-50.04769531 19.61617187 -50.09539062 20.23234375 -50.14453125 20.8671875 C-51 23 -51 23 -53.44921875 24.1328125 C-54.51785156 24.46023437 -55.58648437 24.78765625 -56.6875 25.125 C-69.08986317 29.55344512 -79.05065059 38.59381499 -89 47 C-89.66 46.67 -90.32 46.34 -91 46 C-71.93280517 27.53035259 -47.06484994 13.46017605 -22 5 C-20.48671493 4.4642875 -18.97371878 3.92775849 -17.4609375 3.390625 C-15.828444 2.822 -14.19562978 2.25429497 -12.5625 1.6875 C-11.78028076 1.4083374 -10.99806152 1.1291748 -10.19213867 0.84155273 C-9.44939697 0.58833252 -8.70665527 0.3351123 -7.94140625 0.07421875 C-7.27826416 -0.15692627 -6.61512207 -0.38807129 -5.93188477 -0.6262207 C-3.66012191 -1.0657593 -2.18148214 -0.70549673 0 0 Z " fill="#FDEDBC" transform="translate(190,33)"/>
<path d="M0 0 C2.97764654 2.56755151 4.41419101 5.49241172 6.125 9 C6.64320312 10.051875 7.16140625 11.10375 7.6953125 12.1875 C9 15 9 15 10 18 C10.99 18 11.98 18 13 18 C16 23.625 16 23.625 16 27 C16.66 27 17.32 27 18 27 C18 27.66 18 28.32 18 29 C18.928125 29.0928125 18.928125 29.0928125 19.875 29.1875 C22 30 22 30 23.0625 32.3125 C23.371875 33.199375 23.68125 34.08625 24 35 C24.495 35.66 24.99 36.32 25.5 37 C27 39 27 39 27.79296875 41.25 C29.28444773 44.64806215 31.4047749 47.22436907 33.8125 50 C34.29025879 50.55598877 34.76801758 51.11197754 35.26025391 51.68481445 C39.00153949 55.97820156 42.886219 60.1236967 46.875 64.1875 C47.40971924 64.73986328 47.94443848 65.29222656 48.49536133 65.86132812 C51.53357501 68.89430924 54.06593042 70.44289653 58 72 C60.45703125 74.3828125 60.45703125 74.3828125 62.8125 77.125 C63.60269531 78.03507812 64.39289063 78.94515625 65.20703125 79.8828125 C65.79871094 80.58148438 66.39039062 81.28015625 67 82 C62.58412501 82 60.3997892 79.23914192 57.25 76.4375 C56.2595166 75.56436157 56.2595166 75.56436157 55.24902344 74.67358398 C43.31626417 64.03669637 32.46629645 52.89212524 23 40 C22.56848633 39.41863281 22.13697266 38.83726562 21.69238281 38.23828125 C0 8.9268736 0 8.9268736 0 0 Z " fill="#F6D272" transform="translate(42,350)"/>
<path d="M0 0 C0.33 0 0.66 0 1 0 C1.04694347 8.72962179 1.08217663 17.45919823 1.10362434 26.18892002 C1.11393319 30.24521497 1.1278468 34.30142178 1.15087891 38.35766602 C1.2522777 56.68251782 1.10596591 74.7645195 -1 93 C1.66859674 91.42655603 4.19934834 89.85164775 6.6875 88 C10.92783944 85.43979506 15.23339988 84.2434609 20 83 C17.12037726 86.13709489 14.33282095 88.10151476 10.5625 90.0625 C7.74505214 91.53979881 4.98384174 93.00999169 2.27734375 94.68359375 C0 96 0 96 -2 96 C-2.0297226 91.83334907 -2.04703495 87.6667263 -2.0625 83.5 C-2.07087891 82.34628906 -2.07925781 81.19257813 -2.08789062 80.00390625 C-2.10471188 73.91461367 -1.96313226 67.88707927 -1.53125 61.8125 C-0.67567752 49.7288403 -0.63598123 37.60816529 -0.4375 25.5 C-0.39420763 23.01952551 -0.35059034 20.53905668 -0.30664062 18.05859375 C-0.20068318 12.03912246 -0.09872852 6.01959398 0 0 Z " fill="#F8DC4A" transform="translate(276,115)"/>
<path d="M0 0 C1.45538496 4.36615489 -0.55063148 7.26974772 -2.375 11.25 C-2.73787109 12.05123291 -3.10074219 12.85246582 -3.47460938 13.67797852 C-8.94946069 25.49687229 -15.75723348 36.88578904 -24 47 C-24.33 47 -24.66 47 -25 47 C-25.125 41.25 -25.125 41.25 -24 39 C-23.34 39 -22.68 39 -22 39 C-21.34 37.35 -20.68 35.7 -20 34 C-19.34 34 -18.68 34 -18 34 C-17.855625 33.4225 -17.71125 32.845 -17.5625 32.25 C-17.04166667 30.16666667 -16.52083333 28.08333333 -16 26 C-15.34 26 -14.68 26 -14 26 C-13.7834375 25.071875 -13.7834375 25.071875 -13.5625 24.125 C-13 22 -13 22 -12 20 C-11.34 20 -10.68 20 -10 20 C-9.87625 19.319375 -9.7525 18.63875 -9.625 17.9375 C-8.90899123 14.5722588 -7.97054875 11.29986575 -7 8 C-5.68 8 -4.36 8 -3 8 C-2.690625 7.05125 -2.38125 6.1025 -2.0625 5.125 C-1 2 -1 2 0 0 Z " fill="#F9E096" transform="translate(457,338)"/>
<path d="M0 0 C0.33 0 0.66 0 1 0 C1.06108145 9.58327751 1.10190975 19.16656264 1.125 28.75 C1.12671204 29.45557289 1.12842407 30.16114578 1.13018799 30.88809967 C1.17828861 53.3160552 0.76964104 75.63004287 -1 98 C-5.39704421 97.29795092 -7.64871128 95.96828429 -11 93 C-9.02 92.505 -9.02 92.505 -7 92 C-7 92.66 -7 93.32 -7 94 C-6.34 94 -5.68 94 -5 94 C-5 94.66 -5 95.32 -5 96 C-4.34 96 -3.68 96 -3 96 C-2.01 64.32 -1.02 32.64 0 0 Z " fill="#F9DF51" transform="translate(229,114)"/>
<path d="M0 0 C0 0.66 0 1.32 0 2 C-0.86625 2.37125 -0.86625 2.37125 -1.75 2.75 C-4.06848332 3.88647397 -4.06848332 3.88647397 -5.6875 5.8125 C-9.56856665 9.48377927 -14.39523792 11.74878393 -19.1875 14.05078125 C-21.08363862 14.92148336 -21.08363862 14.92148336 -22.5 16.5625 C-24 18 -24 18 -25.875 18.4375 C-28.18344678 18.89149014 -28.18344678 18.89149014 -30.2421875 20.8359375 C-33.12721766 23.09982802 -35.94795968 24.60561123 -39.25 26.1875 C-42.8649691 27.7335063 -42.8649691 27.7335063 -46 30 C-47.66617115 30.04063832 -49.33388095 30.042721 -51 30 C-48.15950958 26.84389953 -45.90184381 25.53552737 -42 24 C-40.35588034 23.07485228 -38.73080488 22.11516083 -37.125 21.125 C-34.10926479 19.27955009 -31.08941219 17.46921264 -28 15.75 C-25.00212078 14.17178298 -25.00212078 14.17178298 -23 12 C-22.195625 11.690625 -21.39125 11.38125 -20.5625 11.0625 C-17.96344461 9.98484289 -16.90532529 8.98816552 -15 7 C-13.66666667 6.33333333 -12.33333333 5.66666667 -11 5 C-10.67 4.34 -10.34 3.68 -10 3 C-8.01751285 2.28293018 -6.01584651 1.61709587 -4 1 C-2 0 -2 0 0 0 Z " fill="#F9DD51" transform="translate(197,310)"/>
<path d="M0 0 C6.27 0.33 12.54 0.66 19 1 C19 1.66 19 2.32 19 3 C19.85464844 2.98839844 20.70929688 2.97679687 21.58984375 2.96484375 C22.69457031 2.95582031 23.79929688 2.94679688 24.9375 2.9375 C26.03964844 2.92589844 27.14179688 2.91429687 28.27734375 2.90234375 C31 3 31 3 32 4 C33.53382679 4.1225355 35.07310519 4.17777938 36.61157227 4.20532227 C37.59251358 4.22526749 38.5734549 4.24521271 39.5841217 4.26576233 C41.18410255 4.29083107 41.18410255 4.29083107 42.81640625 4.31640625 C43.9025975 4.33718735 44.98878876 4.35796844 46.1078949 4.37937927 C49.59269627 4.44499442 53.07757568 4.50381511 56.5625 4.5625 C58.91862801 4.60567385 61.27474799 4.64928776 63.63085938 4.69335938 C69.42048937 4.80068792 75.21019775 4.90243165 81 5 C81 5.33 81 5.66 81 6 C76.61099025 6.83889081 72.44254982 7.14025376 67.9765625 7.16796875 C67.31771057 7.17206757 66.65885864 7.17616638 65.9800415 7.1803894 C63.86164038 7.18989525 61.74341925 7.18992478 59.625 7.1875 C58.90346741 7.18789276 58.18193481 7.18828552 57.4385376 7.18869019 C48.29334842 7.18270595 39.37199842 6.93139986 30.31640625 5.5 C26.80695967 4.97089616 23.35574219 4.74756597 19.8125 4.5625 C12.99946128 4.13913511 6.58799246 2.74001794 0 1 C0 0.67 0 0.34 0 0 Z " fill="#F2C24E" transform="translate(189,472)"/>
<path d="M0 0 C3.125 -0.1875 3.125 -0.1875 6 0 C6 0.66 6 1.32 6 2 C5.113125 2.268125 4.22625 2.53625 3.3125 2.8125 C0.2285477 3.9180678 -2.2198443 5.30101596 -5 7 C-5.66 7 -6.32 7 -7 7 C-7 7.66 -7 8.32 -7 9 C-7.75023437 9.35191406 -8.50046875 9.70382813 -9.2734375 10.06640625 C-14.45694355 12.56676244 -19.3476982 15.0979096 -24 18.5 C-29.33910176 22.38844549 -35.04969097 25.17156543 -41 28 C-42.58527964 28.78776204 -44.16890773 29.57886697 -45.75 30.375 C-46.8225 30.91125 -47.895 31.4475 -49 32 C-49 31.34 -49 30.68 -49 30 C-42.88178167 24.65713192 -35.5906908 21.20261391 -28.33984375 17.69921875 C-24.63336719 15.81346752 -21.2856152 13.64495865 -17.87890625 11.2734375 C-14.74395247 9.14870791 -11.35281578 7.62672821 -7.92578125 6.0390625 C-7.20777344 5.69617188 -6.48976563 5.35328125 -5.75 5 C-5.08484375 4.690625 -4.4196875 4.38125 -3.734375 4.0625 C-1.67562305 2.96814601 -1.67562305 2.96814601 0 0 Z " fill="#F6DB4A" transform="translate(353,162)"/>
<path d="M0 0 C0.66 0.33 1.32 0.66 2 1 C-9.93108964 12.01087262 -9.93108964 12.01087262 -16.12109375 13.515625 C-18.19611501 13.87598744 -18.19611501 13.87598744 -19.8125 15.875 C-22.07046762 18.06845426 -24.09596413 19.00935446 -27 20.1484375 C-30.09474379 21.46612138 -32.96771325 23.15210649 -35.88671875 24.81640625 C-36.58410156 25.20699219 -37.28148437 25.59757812 -38 26 C-39.03060547 26.60134766 -39.03060547 26.60134766 -40.08203125 27.21484375 C-42 28 -42 28 -45 27 C-44.34 27 -43.68 27 -43 27 C-43 26.34 -43 25.68 -43 25 C-42.24976563 24.64808594 -41.49953125 24.29617187 -40.7265625 23.93359375 C-35.54305645 21.43323756 -30.6523018 18.9020904 -26 15.5 C-21.51386771 12.22555617 -16.8436905 9.82251168 -11.84765625 7.41796875 C-5.51174364 4.3063903 -5.51174364 4.3063903 0 0 Z " fill="#F8DB4A" transform="translate(363,212)"/>
<path d="M0 0 C0.66 0.33 1.32 0.66 2 1 C-22.06464475 17.75088017 -22.06464475 17.75088017 -36.0625 21.0625 C-36.71347656 21.21847656 -37.36445313 21.37445313 -38.03515625 21.53515625 C-38.68355469 21.68855469 -39.33195312 21.84195312 -40 22 C-41.33374166 22.33169575 -42.66719215 22.66457174 -44 23 C-43.67 21.35 -43.34 19.7 -43 18 C-41.87851562 17.80083984 -41.87851562 17.80083984 -40.734375 17.59765625 C-39.25710938 17.33275391 -39.25710938 17.33275391 -37.75 17.0625 C-36.77546875 16.88847656 -35.8009375 16.71445312 -34.796875 16.53515625 C-31.36066003 15.91279647 -31.36066003 15.91279647 -28 15 C-27.67 14.34 -27.34 13.68 -27 13 C-25.96875 12.87625 -24.9375 12.7525 -23.875 12.625 C-19.50396619 11.91999455 -16.64822066 10.34011992 -13 8 C-11.32595859 6.93342511 -9.6515698 5.86735389 -7.97119141 4.81079102 C-6.78989076 4.06685942 -5.61365713 3.31481531 -4.44287109 2.55444336 C-2.99880025 1.64180256 -1.50234202 0.81315575 0 0 Z " fill="#F6C13C" transform="translate(374,440)"/>
<path d="M0 0 C7.33516099 0.52394007 13.69268093 2.28613009 20.625 4.6875 C21.68823486 5.05125732 22.75146973 5.41501465 23.84692383 5.78979492 C26.90346454 6.84488815 29.95305286 7.9175527 33 9 C33.73621582 9.25942383 34.47243164 9.51884766 35.23095703 9.78613281 C43.62292933 12.7894861 51.47298923 16.65352021 59.375 20.75 C60.31045654 21.2344458 61.24591309 21.7188916 62.2097168 22.21801758 C63.07636963 22.67716553 63.94302246 23.13631348 64.8359375 23.609375 C65.61501465 24.02155273 66.3940918 24.43373047 67.19677734 24.85839844 C69 26 69 26 70 28 C65.58982887 27.42228386 62.6407112 25.75590774 58.875 23.4375 C45.98928089 15.78094501 29.21358746 7.52589956 14.296875 5.49609375 C11 5 11 5 8 3 C5.95415921 2.33841957 5.95415921 2.33841957 3.8125 1.875 C2.554375 1.58625 1.29625 1.2975 0 1 C0 0.67 0 0.34 0 0 Z " fill="#FDEDB9" transform="translate(296,30)"/>
<path d="M0 0 C0.66 0 1.32 0 2 0 C2.20638953 45.18978067 2.20638953 45.18978067 1 66 C0.67 66 0.34 66 0 66 C0.00222061 65.22992111 0.00444122 64.45984222 0.00672913 63.66642761 C0.02675881 56.41230341 0.04198783 49.1581926 0.05181217 41.90404797 C0.05703273 38.17454538 0.0641154 34.44506562 0.07543945 30.71557617 C0.08629767 27.11702055 0.09228308 23.5184869 0.09487724 19.91991615 C0.09672619 18.54638638 0.10033666 17.17285782 0.10573006 15.79933739 C0.11297928 13.87689764 0.11340839 11.95443583 0.11352539 10.03198242 C0.115746 8.93722092 0.11796661 7.84245941 0.12025452 6.71452332 C0.11988277 3.90309491 0.11988277 3.90309491 -1 1 C-0.67 0.67 -0.34 0.34 0 0 Z " fill="#FAE05C" transform="translate(224,294)"/>
<path d="M0 0 C3.54679448 2.66777956 6.24020707 5.36050743 8.9375 8.875 C12.80537432 13.69196617 16.90901298 18.16752767 21.25 22.5625 C21.84031006 23.17013184 22.43062012 23.77776367 23.03881836 24.40380859 C26.26171332 27.62351392 28.72314164 29.34965236 33 31 C35.45703125 33.3828125 35.45703125 33.3828125 37.8125 36.125 C38.60269531 37.03507812 39.39289063 37.94515625 40.20703125 38.8828125 C40.79871094 39.58148438 41.39039063 40.28015625 42 41 C37.5839192 41 35.400118 38.23894389 32.25 35.4375 C31.59112793 34.85758301 30.93225586 34.27766602 30.25341797 33.68017578 C19.48301493 24.09030091 8.26940808 13.89987992 0 2 C0 1.34 0 0.68 0 0 Z " fill="#FDEDB6" transform="translate(67,391)"/>
<path d="M0 0 C12.95800239 12.23307918 23.58987538 32.73968468 28 50 C27.67 50.66 27.34 51.32 27 52 C26.731875 51.319375 26.46375 50.63875 26.1875 49.9375 C23.37156923 42.97177651 20.22449775 36.27767603 16.76757812 29.609375 C14.81869489 25.81076893 13.23909901 22.10491261 12 18 C11.34 18 10.68 18 10 18 C8.78433688 16.0842321 7.65143806 14.11553193 6.5625 12.125 C4.03624641 7.39047562 4.03624641 7.39047562 0 4 C0 2.68 0 1.36 0 0 Z " fill="#FEF1C5" transform="translate(432,120)"/>
<path d="M0 0 C2.35900131 2.14454665 3.91146131 3.98558516 5 7 C5.0777346 9.33203812 5.08967728 11.66839059 5 14 C5.66 14 6.32 14 7 14 C7.50512244 15.60256108 8.00391627 17.20711792 8.5 18.8125 C8.7784375 19.70582031 9.056875 20.59914063 9.34375 21.51953125 C10 24 10 24 10 27 C10.66 27 11.32 27 12 27 C12.66 30.96 13.32 34.92 14 39 C11.61857624 35.82476832 10.40375956 33.91821536 9.0625 30.3671875 C8.72476563 29.47773438 8.38703125 28.58828125 8.0390625 27.671875 C7.69617187 26.74890625 7.35328125 25.8259375 7 24.875 C6.65710937 23.97523438 6.31421875 23.07546875 5.9609375 22.1484375 C0 6.31327529 0 6.31327529 0 0 Z " fill="#F5D170" transform="translate(26,306)"/>
<path d="M0 0 C-0.80824219 0.32613281 -1.61648437 0.65226562 -2.44921875 0.98828125 C-3.51785156 1.42527344 -4.58648437 1.86226562 -5.6875 2.3125 C-6.74324219 2.74175781 -7.79898438 3.17101563 -8.88671875 3.61328125 C-11.75658399 4.89157756 -14.33045631 6.35401192 -17 8 C-18.66666667 8.66666667 -20.33333333 9.33333333 -22 10 C-23.6829392 10.97236487 -25.35443434 11.96564444 -27 13 C-27 12.34 -27 11.68 -27 11 C-29.31 11.33 -31.62 11.66 -34 12 C-32.68 11.34 -31.36 10.68 -30 10 C-30 9.34 -30 8.68 -30 8 C-4.93166343 -1.61056576 -4.93166343 -1.61056576 0 0 Z " fill="#F8D67D" transform="translate(190,33)"/>
<path d="M0 0 C0 4.36438599 -2.6831715 6.55968474 -5.375 9.75 C-9.69448141 15.00838703 -13.78126127 20.34032096 -17.5625 26 C-17.96710449 26.59780273 -18.37170898 27.19560547 -18.78857422 27.81152344 C-21.3708962 31.73367788 -23.19911567 35.6664599 -25 40 C-27 43 -27 43 -29 46 C-29.76939681 48.22602615 -29.76939681 48.22602615 -30 50 C-30.66 50 -31.32 50 -32 50 C-26.78449842 31.09380677 -12.91644244 14.33962716 0 0 Z " fill="#FDECB7" transform="translate(74,104)"/>
<path d="M0 0 C0.66 0.33 1.32 0.66 2 1 C-2.43826086 7.39631712 -7.12101042 13.46932406 -12.1875 19.375 C-12.68604492 19.95717285 -13.18458984 20.5393457 -13.69824219 21.13916016 C-16.67118014 24.57137258 -19.75079609 27.82801666 -23 31 C-23.66 30.67 -24.32 30.34 -25 30 C-24.4946875 29.55269531 -23.989375 29.10539062 -23.46875 28.64453125 C-19.32704813 25.03493296 -19.32704813 25.03493296 -17.5625 20.0625 C-17.706875 19.381875 -17.85125 18.70125 -18 18 C-17.01 17.67 -16.02 17.34 -15 17 C-14.54625 16.195625 -14.0925 15.39125 -13.625 14.5625 C-12 12 -12 12 -9.63671875 11.16015625 C-6.27332557 9.68026325 -5.18157042 7.92475476 -3.1875 4.875 C-2.58292969 3.96492188 -1.97835938 3.05484375 -1.35546875 2.1171875 C-0.68451172 1.06917969 -0.68451172 1.06917969 0 0 Z " fill="#F9D880" transform="translate(430,385)"/>
<path d="M0 0 C0.66 0.33 1.32 0.66 2 1 C-0.12892838 4.52092002 -1.96445738 7.12580763 -5.25 9.625 C-6.1575 10.40875 -7.065 11.1925 -8 12 C-8 13.32 -8 14.64 -8 16 C-9.19625 16.391875 -10.3925 16.78375 -11.625 17.1875 C-15.89507155 18.76788235 -18.6735206 20.92300655 -22 24 C-20.66059606 21.05258428 -19.16010392 18.86592907 -16.953125 16.50390625 C-16.355 15.86259766 -15.756875 15.22128906 -15.140625 14.56054688 C-14.51671875 13.90119141 -13.8928125 13.24183594 -13.25 12.5625 C-12.6415625 11.90701172 -12.033125 11.25152344 -11.40625 10.57617188 C-7.8060214 6.74131299 -4.11559067 3.27606067 0 0 Z " fill="#F9DF93" transform="translate(97,80)"/>
<path d="M0 0 C0.33 0 0.66 0 1 0 C1.27778264 21.42012766 1.27778264 21.42012766 -2 29 C-2.3813074 31.32597511 -2.72460254 33.65912158 -3 36 C-3.33 36 -3.66 36 -4 36 C-4.57954532 23.42708633 -3.00156914 12.20727451 0 0 Z " fill="#F9D576" transform="translate(26,195)"/>
<path d="M0 0 C1.06528748 2.73019786 1.07998186 3.79298812 0.00390625 6.578125 C-0.47175781 7.45984375 -0.94742187 8.3415625 -1.4375 9.25 C-1.91058594 10.14203125 -2.38367188 11.0340625 -2.87109375 11.953125 C-3.24363281 12.62859375 -3.61617188 13.3040625 -4 14 C-4.66 14 -5.32 14 -6 14 C-6 15.11375 -6 16.2275 -6 17.375 C-6.70345124 23.41385834 -10.81989387 27.82844215 -15 32 C-15.66 32 -16.32 32 -17 32 C-17.33 33.32 -17.66 34.64 -18 36 C-18.33 35.34 -18.66 34.68 -19 34 C-18.06553465 31.96855359 -17.06775224 29.96466413 -16 28 C-15.34 28 -14.68 28 -14 28 C-13.71640625 27.27167969 -13.4328125 26.54335938 -13.140625 25.79296875 C-10.17603037 18.53377301 -6.37399773 11.77577471 -2.234375 5.12890625 C-0.86533364 2.9331513 -0.86533364 2.9331513 0 0 Z " fill="#F6DC4C" transform="translate(381,300)"/>
<path d="M0 0 C-2.84353469 2.31938083 -5.42313159 3.65985629 -8.875 4.875 C-12.0956887 6.10574634 -14.61857182 7.25669654 -17.1875 9.5625 C-20 12 -20 12 -23.5625 13.5 C-27.28832683 15.12581534 -29.23591281 17.07796498 -32 20 C-32.66 20 -33.32 20 -34 20 C-34 18.68 -34 17.36 -34 16 C-33.01 15.67 -32.02 15.34 -31 15 C-30.56945312 14.55398438 -30.13890625 14.10796875 -29.6953125 13.6484375 C-27.36070817 11.37838444 -24.75707345 10.13076414 -21.875 8.625 C-17.16508377 6.14664943 -12.50670605 3.61425187 -7.90234375 0.9453125 C-2.9907312 -1.4953656 -2.9907312 -1.4953656 0 0 Z " fill="#F8DD51" transform="translate(152,284)"/>
<path d="M0 0 C2.31 0 4.62 0 7 0 C7 0.66 7 1.32 7 2 C7.66 2 8.32 2 9 2 C9.33 2.66 9.66 3.32 10 4 C10.99 4.33 11.98 4.66 13 5 C13 5.66 13 6.32 13 7 C13.69480469 7.26554687 14.38960937 7.53109375 15.10546875 7.8046875 C18.25676076 9.10603076 21.27000171 10.58703383 24.3125 12.125 C25.38113281 12.66382813 26.44976562 13.20265625 27.55078125 13.7578125 C28.76314453 14.37269531 28.76314453 14.37269531 30 15 C28 16 28 16 25.671875 15.28515625 C19.71557726 12.79274824 13.99702732 10.04086572 8.375 6.875 C7.77139648 6.53863525 7.16779297 6.20227051 6.54589844 5.85571289 C3.52907392 4.11169198 1.9702158 2.95532369 0 0 Z " fill="#FCEBB9" transform="translate(125,444)"/>
<path d="M0 0 C0.33 0.66 0.66 1.32 1 2 C-2.88325031 10.20089812 -8.31100129 17.95119184 -14 25 C-14.33 25 -14.66 25 -15 25 C-15.125 19.25 -15.125 19.25 -14 17 C-13.34 17 -12.68 17 -12 17 C-11.731875 16.195625 -11.46375 15.39125 -11.1875 14.5625 C-10.795625 13.716875 -10.40375 12.87125 -10 12 C-9.01 11.67 -8.02 11.34 -7 11 C-5.35341363 8.71633217 -5.35341363 8.71633217 -3.875 6 C-1.04635762 1.04635762 -1.04635762 1.04635762 0 0 Z " fill="#F6D06F" transform="translate(447,360)"/>
<path d="M0 0 C6.27 0.33 12.54 0.66 19 1 C19 1.66 19 2.32 19 3 C19.85464844 2.98839844 20.70929688 2.97679687 21.58984375 2.96484375 C22.69457031 2.95582031 23.79929688 2.94679688 24.9375 2.9375 C26.03964844 2.92589844 27.14179688 2.91429687 28.27734375 2.90234375 C31 3 31 3 32 4 C34.32817964 4.36760731 36.6618385 4.70241581 39 5 C39 5.33 39 5.66 39 6 C37.7625 6.020625 36.525 6.04125 35.25 6.0625 C34.55390625 6.07410156 33.8578125 6.08570313 33.140625 6.09765625 C31 6 31 6 29.13671875 5.51953125 C26.27902407 4.82469872 23.49897419 4.76499082 20.5625 4.625 C13.47995456 4.17165764 6.84961648 2.80911797 0 1 C0 0.67 0 0.34 0 0 Z " fill="#F6CF6A" transform="translate(189,472)"/>
<path d="M0 0 C1.65 0 3.3 0 5 0 C4.67 0.66 4.34 1.32 4 2 C3.34 2 2.68 2 2 2 C2 2.66 2 3.32 2 4 C0.11012684 5.24233522 -1.8391253 6.39509744 -3.8125 7.5 C-6.94473934 9.26632851 -10.00736314 11.00490876 -13 13 C-13.99 12.67 -14.98 12.34 -16 12 C-14.68 11.67 -13.36 11.34 -12 11 C-12 10.01 -12 9.02 -12 8 C-11.34 8 -10.68 8 -10 8 C-10 7.01 -10 6.02 -10 5 C-8.68 5 -7.36 5 -6 5 C-6 4.01 -6 3.02 -6 2 C-5.34 2 -4.68 2 -4 2 C-4 2.66 -4 3.32 -4 4 C-2.68 3.67 -1.36 3.34 0 3 C0 2.01 0 1.02 0 0 Z " fill="#F7C034" transform="translate(374,436)"/>
<path d="M0 0 C0.66 0.33 1.32 0.66 2 1 C-16.83585313 14.1112311 -16.83585313 14.1112311 -27 18 C-27.99 17.67 -28.98 17.34 -30 17 C-29.20078125 16.57589844 -28.4015625 16.15179688 -27.578125 15.71484375 C-19.00966427 11.1389639 -10.4327931 6.52819322 -2.28125 1.234375 C-1.15203125 0.62335938 -1.15203125 0.62335938 0 0 Z " fill="#FDEFBF" transform="translate(374,440)"/>
<path d="M0 0 C0.33 0 0.66 0 1 0 C1 12.21 1 24.42 1 37 C-3.92129494 36.01574101 -5.40538913 35.1837982 -9 32 C-7.68 31.67 -6.36 31.34 -5 31 C-5 31.66 -5 32.32 -5 33 C-4.34 33 -3.68 33 -3 33 C-3 33.66 -3 34.32 -3 35 C-2.34 35 -1.68 35 -1 35 C-0.67 23.45 -0.34 11.9 0 0 Z " fill="#F8D744" transform="translate(227,175)"/>
<path d="M0 0 C0.33 0 0.66 0 1 0 C1.9196476 4.69020279 2.36070796 7.75072567 0 12 C-0.47566406 12.41378906 -0.95132813 12.82757813 -1.44140625 13.25390625 C-3.59387918 15.66532329 -4.22992923 18.11666959 -5.1875 21.1875 C-5.53167969 22.27417969 -5.87585938 23.36085937 -6.23046875 24.48046875 C-6.48441406 25.31191406 -6.73835938 26.14335937 -7 27 C-8.32856028 23.3417547 -7.64879015 21.18126502 -6.34765625 17.578125 C-5.98349609 16.55332031 -5.61933594 15.52851563 -5.24414062 14.47265625 C-4.85419922 13.40917969 -4.46425781 12.34570312 -4.0625 11.25 C-3.67642578 10.17105469 -3.29035156 9.09210938 -2.89257812 7.98046875 C-1.9378746 5.31672804 -0.97339357 2.65695582 0 0 Z " fill="#F8DC8C" transform="translate(35,168)"/>
<path d="M0 0 C0.74609375 1.5703125 0.74609375 1.5703125 1 4 C-0.54815078 7.03774267 -2.26490526 9.83073771 -4.10742188 12.69140625 C-6.5458316 16.65650989 -7.46229507 19.3486004 -7 24 C-8.32 23.34 -9.64 22.68 -11 22 C-10.32108399 18.5072634 -8.91739847 15.78379928 -7.1875 12.6875 C-6.65253906 11.72585937 -6.11757812 10.76421875 -5.56640625 9.7734375 C-3.72249395 6.50865513 -1.87580308 3.24658225 0 0 Z " fill="#FEF082" transform="translate(130,182)"/>
<path d="M0 0 C2 3 2 3 2 5 C2.66 5 3.32 5 4 5 C4.38091797 5.88751953 4.38091797 5.88751953 4.76953125 6.79296875 C7.00129911 11.92324158 7.00129911 11.92324158 9.8125 16.75 C11 19 11 19 10.6875 21.8125 C10.460625 22.534375 10.23375 23.25625 10 24 C8.35 24.33 6.7 24.66 5 25 C5.33 24.34 5.66 23.68 6 23 C6.99 23 7.98 23 9 23 C6.62612577 16.99549458 3.52876869 11.48524609 0.328125 5.890625 C-1 3 -1 3 0 0 Z " fill="#F7D949" transform="translate(371,181)"/>
<path d="M0 0 C4.53898212 3.53401687 7.96712214 7.19487698 11.375 11.8125 C11.82488281 12.40998047 12.27476562 13.00746094 12.73828125 13.62304688 C13.8318657 15.07728151 14.91685736 16.5379715 16 18 C15.67 18.66 15.34 19.32 15 20 C13.68 19.34 12.36 18.68 11 18 C11 17.34 11 16.68 11 16 C10.34 16 9.68 16 9 16 C9 15.01 9 14.02 9 13 C8.34 13 7.68 13 7 13 C6.20724852 11.5839401 5.41584688 10.16712447 4.625 8.75 C3.96371094 7.56664063 3.96371094 7.56664063 3.2890625 6.359375 C2.14252177 4.26085803 1.05350448 2.1463923 0 0 Z " fill="#F8D987" transform="translate(416,100)"/>
<path d="M0 0 C0.99 0 1.98 0 3 0 C3.38671875 0.88042969 3.7734375 1.76085937 4.171875 2.66796875 C4.95304687 4.41013672 4.95304687 4.41013672 5.75 6.1875 C6.26046875 7.33605469 6.7709375 8.48460937 7.296875 9.66796875 C8.91430894 12.83235213 10.78280222 15.24761654 13 18 C13.25 20.8125 13.25 20.8125 13 23 C9.12358085 18.67630171 3 11.04191557 3 5 C2.34 5 1.68 5 1 5 C0.67 3.35 0.34 1.7 0 0 Z " fill="#F1C759" transform="translate(40,345)"/>
<path d="M0 0 C4.612707 0.54913179 7.92529553 1.79965959 12 4 C12.66515625 4.31195313 13.3303125 4.62390625 14.015625 4.9453125 C18.02115749 6.8293963 21.06520757 8.5760755 24 12 C22.39253944 11.57476184 20.78910164 11.13429874 19.1875 10.6875 C17.84751953 10.32205078 17.84751953 10.32205078 16.48046875 9.94921875 C13.85486105 8.94445864 12.92839338 7.96774835 11 6 C9.13490595 5.04181131 7.2350814 4.14938837 5.3125 3.3125 C4.31863281 2.87550781 3.32476562 2.43851562 2.30078125 1.98828125 C1.54152344 1.66214844 0.78226563 1.33601563 0 1 C0 0.67 0 0.34 0 0 Z " fill="#F2C448" transform="translate(143,453)"/>
<path d="M0 0 C0.66 0.33 1.32 0.66 2 1 C-0.07252298 4.10878446 -1.59455362 4.90536207 -4.7890625 6.6171875 C-8.7122481 9.07091136 -12.13393261 12.16970789 -15.64453125 15.171875 C-18 17 -18 17 -20 17 C-20 17.99 -20 18.98 -20 20 C-21.32 19.67 -22.64 19.34 -24 19 C-16.23739308 12.28639401 -8.4175201 5.88720344 0 0 Z " fill="#F0C44A" transform="translate(120,64)"/>
<path d="M0 0 C1.98 0 3.96 0 6 0 C6.33 1.65 6.66 3.3 7 5 C6.01 5.66 5.02 6.32 4 7 C3.01 6.01 2.02 5.02 1 4 C-2.41124018 5.41154766 -3.8456223 7.06221223 -6 10 C-6.66 10 -7.32 10 -8 10 C-6.50104329 6.18447383 -4.2013144 4.46254954 -1 2 C-0.67 1.34 -0.34 0.68 0 0 Z " fill="#F7C12C" transform="translate(96,84)"/>
<path d="M0 0 C-24.98265839 5.96942016 -24.98265839 5.96942016 -35 5 C-35 4.67 -35 4.34 -35 4 C-32.43795456 3.66280953 -29.87545682 3.33012847 -27.3125 3 C-26.59126953 2.90460938 -25.87003906 2.80921875 -25.12695312 2.7109375 C-21.39007129 2.23316265 -17.77708469 1.88080206 -14 2 C-14 1.34 -14 0.68 -14 0 C-12.41773035 -0.19627391 -10.83410729 -0.38165538 -9.25 -0.5625 C-8.36828125 -0.66691406 -7.4865625 -0.77132813 -6.578125 -0.87890625 C-4.09339997 -0.99561303 -2.37087156 -0.65441343 0 0 Z " fill="#FADF91" transform="translate(305,473)"/>
<path d="M0 0 C2.8565546 2.48579235 4.20251711 5.16069043 5.8125 8.5625 C8.25194776 13.60688569 10.95815659 18.33368614 13.99609375 23.0390625 C14.32738281 23.68617188 14.65867187 24.33328125 15 25 C14.67 25.66 14.34 26.32 14 27 C0 8.53191489 0 8.53191489 0 0 Z " fill="#FEF1C3" transform="translate(42,350)"/>
<path d="M0 0 C0.33 0.99 0.66 1.98 1 3 C-0.26241406 5.454694 -1.76747818 7.66869001 -3.3515625 9.92578125 C-6.30732162 14.0829306 -6.30732162 14.0829306 -6.8125 19 C-6.4103125 19.99 -6.4103125 19.99 -6 21 C-7.32 20.34 -8.64 19.68 -10 19 C-9.42385534 15.25837091 -8.37098904 12.55701579 -6.4375 9.3125 C-4.53684034 6.34778023 -4.53684034 6.34778023 -4 3 C-2 1.375 -2 1.375 0 0 Z " fill="#F7D846" transform="translate(127,185)"/>
<path d="M0 0 C0.64066406 0.33773437 1.28132813 0.67546875 1.94140625 1.0234375 C5.87155936 3.05001422 9.46144379 4.85638501 13.75 6 C17.84731449 7.26071215 19.87764894 9.10611365 23 12 C20.04725901 12 18.50941597 11.56108169 15.8125 10.5 C15.09707031 10.2215625 14.38164062 9.943125 13.64453125 9.65625 C13.10183594 9.4396875 12.55914062 9.223125 12 9 C12 8.34 12 7.68 12 7 C11.319375 6.896875 10.63875 6.79375 9.9375 6.6875 C6.37084011 5.85274981 3.33777806 4.50527246 0 3 C0 2.01 0 1.02 0 0 Z " fill="#F2C44E" transform="translate(353,52)"/>
<path d="M0 0 C7.65663132 -0.53418358 16.57067093 0.71378062 23 5 C18.01085676 5.14090007 13.56243852 4.68272028 8.6875 3.625 C7.47449219 3.36976562 6.26148438 3.11453125 5.01171875 2.8515625 C2 2 2 2 0 0 Z " fill="#F4C64E" transform="translate(278,28)"/>
<path d="M0 0 C0.33 0.66 0.66 1.32 1 2 C0.109375 4.0234375 0.109375 4.0234375 -1.25 6.375 C-1.68828125 7.14585938 -2.1265625 7.91671875 -2.578125 8.7109375 C-3.95335322 10.92490382 -5.31200667 13.01252399 -7 15 C-7.66 15 -8.32 15 -9 15 C-9 15.99 -9 16.98 -9 18 C-9.99 18.33 -10.98 18.66 -12 19 C-10.42686828 14.27156386 -7.79358765 10.6566157 -4.875 6.6875 C-4.17310547 5.71973633 -4.17310547 5.71973633 -3.45703125 4.73242188 C-2.3094071 3.15151106 -1.15534523 1.57527699 0 0 Z " fill="#F5C553" transform="translate(63,120)"/>
<path d="M0 0 C-2.1847753 1.27571484 -4.37261619 2.54560673 -6.5625 3.8125 C-7.17158203 4.16892578 -7.78066406 4.52535156 -8.40820312 4.89257812 C-12.50419646 7.25481767 -16.62127791 9.21357155 -21 11 C-20.67 10.01 -20.34 9.02 -20 8 C-19.01 8 -18.02 8 -17 8 C-16.67 7.01 -16.34 6.02 -16 5 C-13.10441559 3.5522078 -11.25811062 3 -8 3 C-7.67 2.01 -7.34 1.02 -7 0 C-2.25 -1.125 -2.25 -1.125 0 0 Z " fill="#FEF487" transform="translate(169,327)"/>
<path d="M0 0 C0.33 0 0.66 0 1 0 C0.57483041 8.95788336 -0.74175965 17.32210784 -3 26 C-3.33 26 -3.66 26 -4 26 C-3.85975781 23.52039864 -3.7130815 21.04147598 -3.5625 18.5625 C-3.52318359 17.85544922 -3.48386719 17.14839844 -3.44335938 16.41992188 C-3.11328125 11.11328125 -3.11328125 11.11328125 -2 10 C-1.6068352 8.32115762 -1.25914548 6.63149955 -0.9375 4.9375 C-0.76089844 4.01839844 -0.58429688 3.09929687 -0.40234375 2.15234375 C-0.26957031 1.44207031 -0.13679688 0.73179687 0 0 Z " fill="#F9DE91" transform="translate(472,280)"/>
<path d="M0 0 C4.51273593 4.10248721 5.26362111 7.72701849 5.625 13.75 C5.69976563 14.92046875 5.77453125 16.0909375 5.8515625 17.296875 C5.90054687 18.18890625 5.94953125 19.0809375 6 20 C3.89736898 16.84605348 2.98223382 14.17536296 1.875 10.5625 C1.52179687 9.42941406 1.16859375 8.29632813 0.8046875 7.12890625 C0 4 0 4 0 0 Z " fill="#FADF96" transform="translate(26,306)"/>
<path d="M0 0 C0.60107422 1.87280273 0.60107422 1.87280273 1 4 C-0.6171875 6.03515625 -0.6171875 6.03515625 -2.875 8.0625 C-6.19508085 11.01106214 -6.19508085 11.01106214 -8 15 C-10.5625 16.6875 -10.5625 16.6875 -13 18 C-11.70944264 15.25032269 -10.28915704 12.92126698 -8.3984375 10.546875 C-7.66367188 9.61875 -7.66367188 9.61875 -6.9140625 8.671875 C-6.40617187 8.03765625 -5.89828125 7.4034375 -5.375 6.75 C-4.859375 6.1003125 -4.34375 5.450625 -3.8125 4.78125 C-2.54485821 3.18496033 -1.27285639 1.59213474 0 0 Z " fill="#F2C244" transform="translate(77,102)"/>
<path d="M0 0 C7.77848026 0.99299748 15.08105677 2.09700638 22 6 C18.74004193 7.08557892 16.89457573 6.91310151 13.671875 5.78515625 C12.87265625 5.51123047 12.0734375 5.23730469 11.25 4.95507812 C10.425 4.66052734 9.6 4.36597656 8.75 4.0625 C7.90953125 3.77181641 7.0690625 3.48113281 6.203125 3.18164062 C4.13194269 2.46378767 2.06466738 1.73633881 0 1 C0 0.67 0 0.34 0 0 Z " fill="#F9DF95" transform="translate(167,465)"/>
<path d="M0 0 C4.39970265 4.0114936 8.42485876 8.58833101 11 14 C10.6640625 16.27734375 10.6640625 16.27734375 10 18 C9.29423828 16.73542969 9.29423828 16.73542969 8.57421875 15.4453125 C7.95160156 14.34960938 7.32898438 13.25390625 6.6875 12.125 C6.07261719 11.03445312 5.45773437 9.94390625 4.82421875 8.8203125 C3.13942354 5.80595155 3.13942354 5.80595155 0 4 C0 2.68 0 1.36 0 0 Z " fill="#FAE49F" transform="translate(432,120)"/>
<path d="M0 0 C-1.47692308 5.66153846 -1.47692308 5.66153846 -4.125 7.375 C-5.053125 7.684375 -5.053125 7.684375 -6 8 C-6 7.34 -6 6.68 -6 6 C-7.65 6.33 -9.3 6.66 -11 7 C-10 4 -10 4 -8.22265625 2.83203125 C-7.50980469 2.49558594 -6.79695312 2.15914062 -6.0625 1.8125 C-5.35222656 1.46832031 -4.64195312 1.12414063 -3.91015625 0.76953125 C-2 0 -2 0 0 0 Z " fill="#F3C23B" transform="translate(150,48)"/>
<path d="M0 0 C4.29227942 0.46269985 6.02922065 2.90159458 8.75 6.0625 C9.94882813 7.44115234 9.94882813 7.44115234 11.171875 8.84765625 C11.77515625 9.55792969 12.3784375 10.26820313 13 11 C9.09310274 11 8.23036588 9.76849033 5.375 7.1875 C4.57835938 6.47980469 3.78171875 5.77210938 2.9609375 5.04296875 C1 3 1 3 0 0 Z " fill="#F7DC89" transform="translate(96,421)"/>
<path d="M0 0 C4.10958767 1.45044271 7.43258745 3.51110752 11 6 C8.47211993 8.79872437 6.79588866 10.45773019 3 11 C3.33 10.38125 3.66 9.7625 4 9.125 C5.14193235 7.08981656 5.14193235 7.08981656 5 5 C3.68 4.67 2.36 4.34 1 4 C0.67 2.68 0.34 1.36 0 0 Z " fill="#F7D945" transform="translate(192,246)"/>
<path d="M0 0 C0.66 0.33 1.32 0.66 2 1 C-0.10034847 2.65091584 -2.20495833 4.29581238 -4.3125 5.9375 C-4.90740234 6.40607422 -5.50230469 6.87464844 -6.11523438 7.35742188 C-8.72700884 9.38555959 -10.83892403 10.94630801 -14 12 C-14 11.34 -14 10.68 -14 10 C-13.34 9.67 -12.68 9.34 -12 9 C-11.34786708 6.97536745 -11.34786708 6.97536745 -11 5 C-9.9275 4.731875 -8.855 4.46375 -7.75 4.1875 C-4.43491072 3.13772173 -2.56122354 2.25387672 0 0 Z " fill="#F9DF93" transform="translate(390,428)"/>
<path d="M0 0 C0.99 0 1.98 0 3 0 C2.67 1.98 2.34 3.96 2 6 C1.34 6 0.68 6 0 6 C-0.12375 6.763125 -0.2475 7.52625 -0.375 8.3125 C-1 11 -1 11 -3 14 C-3.66 14 -4.32 14 -5 14 C-3.45730076 9.27934033 -1.92205381 4.58335908 0 0 Z " fill="#F4D274" transform="translate(41,154)"/>
<path d="M0 0 C6.90981988 3.76899266 12.17314195 8.85672611 17 15 C16.67 15.66 16.34 16.32 16 17 C15.09636719 16.08476563 14.19273437 15.16953125 13.26171875 14.2265625 C12.07044577 13.02590942 10.87903217 11.82539585 9.6875 10.625 C9.09259766 10.02171875 8.49769531 9.4184375 7.88476562 8.796875 C7.30791016 8.21679688 6.73105469 7.63671875 6.13671875 7.0390625 C5.34334106 6.23782959 5.34334106 6.23782959 4.53393555 5.42041016 C2.8489902 3.78498535 2.8489902 3.78498535 0 2 C0 1.34 0 0.68 0 0 Z " fill="#FEF1BF" transform="translate(399,83)"/>
<path d="M0 0 C-0.33 0.99 -0.66 1.98 -1 3 C-6.72040011 3.8320582 -12.22240116 4.12036664 -18 4 C-12.50312124 1.03343051 -6.25589769 -0.4036063 0 0 Z " fill="#F9E199" transform="translate(208,28)"/>
<path d="M0 0 C2.31 0 4.62 0 7 0 C7 0.66 7 1.32 7 2 C7.66 2 8.32 2 9 2 C9.33 2.66 9.66 3.32 10 4 C10.99 4.66 11.98 5.32 13 6 C7.77895216 6.63671315 5.32292214 5.23234994 1.3203125 2.19140625 C0.88460937 1.79824219 0.44890625 1.40507812 0 1 C0 0.67 0 0.34 0 0 Z " fill="#F6D886" transform="translate(125,444)"/>
<path d="M0 0 C0 3 0 3 -1.4375 5.25 C-3.22502996 7.98805151 -3.22502996 7.98805151 -3.4375 11.5 C-4.07352934 15.45751587 -5.29370355 17.11910378 -8 20 C-7.3792054 12.86086211 -5.56140755 4.89403864 0 0 Z " fill="#F5C54D" transform="translate(35,179)"/>
<path d="M0 0 C0.66 0.33 1.32 0.66 2 1 C-4.89715536 6.88183807 -4.89715536 6.88183807 -9.5 7.375 C-10.325 7.25125 -11.15 7.1275 -12 7 C-12.33 7.99 -12.66 8.98 -13 10 C-13.66 10 -14.32 10 -15 10 C-14.1875 8.0625 -14.1875 8.0625 -13 6 C-12.01 5.67 -11.02 5.34 -10 5 C-9.34 5.33 -8.68 5.66 -8 6 C-8 5.34 -8 4.68 -8 4 C-6.71349294 3.30289269 -5.42059335 2.61757124 -4.125 1.9375 C-3.40570313 1.55464844 -2.68640625 1.17179687 -1.9453125 0.77734375 C-1.30335938 0.52082031 -0.66140625 0.26429688 0 0 Z " fill="#F7DA4A" transform="translate(186,261)"/>
<path d="M0 0 C0.33 0.66 0.66 1.32 1 2 C3.02463255 2.65213292 3.02463255 2.65213292 5 3 C3.8125 5 3.8125 5 2 7 C-0.6875 7.25 -0.6875 7.25 -3 7 C-2.25 2.25 -2.25 2.25 0 0 Z " fill="#F7C133" transform="translate(420,390)"/>
<path d="M0 0 C0 0.66 0 1.32 0 2 C-4.35294118 6 -4.35294118 6 -8 6 C-8 6.66 -8 7.32 -8 8 C-7.34 8 -6.68 8 -6 8 C-6.66 9.32 -7.32 10.64 -8 12 C-10 9 -10 9 -9.83984375 6.984375 C-8.81068947 4.55269884 -7.73822865 3.71556358 -5.5625 2.25 C-4.94503906 1.82203125 -4.32757813 1.3940625 -3.69140625 0.953125 C-2 0 -2 0 0 0 Z " fill="#FEF084" transform="translate(130,296)"/>
<path d="M0 0 C0.33 1.32 0.66 2.64 1 4 C-0.794375 4.2165625 -0.794375 4.2165625 -2.625 4.4375 C-6.1005158 4.87039343 -9.54950034 5.39616256 -13 6 C-11.66666667 5 -10.33333333 4 -9 3 C-8.360625 2.443125 -7.72125 1.88625 -7.0625 1.3125 C-4.53765285 -0.29422092 -2.93761795 -0.2448015 0 0 Z " fill="#FEF181" transform="translate(359,164)"/>
<path d="M0 0 C0.66 0.33 1.32 0.66 2 1 C1.21753906 1.55429687 0.43507812 2.10859375 -0.37109375 2.6796875 C-1.88896484 3.76636719 -1.88896484 3.76636719 -3.4375 4.875 C-4.44683594 5.59429687 -5.45617187 6.31359375 -6.49609375 7.0546875 C-9.05796247 8.7559726 -9.05796247 8.7559726 -10 11 C-10.66 11 -11.32 11 -12 11 C-12 9.68 -12 8.36 -12 7 C-11.01 6.67 -10.02 6.34 -9 6 C-8.566875 5.54625 -8.13375 5.0925 -7.6875 4.625 C-5.38037885 2.40332778 -2.93165861 1.2475143 0 0 Z " fill="#F7DA44" transform="translate(130,293)"/>
<path d="M0 0 C0.99 0.33 1.98 0.66 3 1 C0.73392948 2.03275341 -1.53681939 3.05133551 -3.8125 4.0625 C-4.77639648 4.50432617 -4.77639648 4.50432617 -5.75976562 4.95507812 C-10.66015625 7.11328125 -10.66015625 7.11328125 -14 6 C-11.67459062 3.26334459 -9.94458185 2.51055025 -6.4375 1.875 C-3.11294614 1.25868689 -3.11294614 1.25868689 0 0 Z " fill="#F8DB8E" transform="translate(336,460)"/>
<path d="M0 0 C1.32 0 2.64 0 4 0 C4 1.65 4 3.3 4 5 C5.98 5 7.96 5 10 5 C9.67 5.99 9.34 6.98 9 8 C7.35 8.33 5.7 8.66 4 9 C2.68 6.03 1.36 3.06 0 0 Z " fill="#FEF181" transform="translate(137,333)"/>
<path d="M0 0 C1.8172331 0.58977747 3.62872043 1.19728453 5.4375 1.8125 C6.44683594 2.14894531 7.45617187 2.48539062 8.49609375 2.83203125 C9.32238281 3.21746094 10.14867187 3.60289062 11 4 C11.33 4.99 11.66 5.98 12 7 C14.50447516 8.21869929 14.50447516 8.21869929 17 9 C16.01 9.495 16.01 9.495 15 10 C13.08203125 9.109375 13.08203125 9.109375 10.8125 7.75 C6.95467587 5.50896624 3.13331979 3.67091651 -1 2 C-0.67 1.34 -0.34 0.68 0 0 Z " fill="#F7DA4B" transform="translate(322,321)"/>
<path d="M0 0 C0 0.66 0 1.32 0 2 C-3.53659861 4.54964086 -7.24360101 6.79035353 -11 9 C-11.66 8.34 -12.32 7.68 -13 7 C-11.54261898 6.01941648 -10.08406325 5.04057868 -8.625 4.0625 C-7.81289062 3.51722656 -7.00078125 2.97195313 -6.1640625 2.41015625 C-2.46537396 0 -2.46537396 0 0 0 Z " fill="#FEEF86" transform="translate(146,287)"/>
<path d="M0 0 C0.33 0.66 0.66 1.32 1 2 C-0.328125 4.75 -0.328125 4.75 -2.25 8 C-3.18585938 9.60875 -3.18585938 9.60875 -4.140625 11.25 C-6 14 -6 14 -9 16 C-8.35026391 12.20084869 -6.58721519 9.51603315 -4.5 6.3125 C-3.8709375 5.33925781 -3.241875 4.36601562 -2.59375 3.36328125 C-1 1 -1 1 0 0 Z " fill="#FDEBBC" transform="translate(447,360)"/>
<path d="M0 0 C1.25541557 3.76624671 0.37061958 5.37188934 -1 9 C-1.66 9 -2.32 9 -3 9 C-3.66 10.98 -4.32 12.96 -5 15 C-6.23593891 11.29218328 -5.5678132 10.32489747 -4.0625 6.8125 C-3.68222656 5.91144531 -3.30195313 5.01039063 -2.91015625 4.08203125 C-2.60980469 3.39496094 -2.30945313 2.70789063 -2 2 C-1.34 2 -0.68 2 0 2 C0 1.34 0 0.68 0 0 Z " fill="#F5CE68" transform="translate(460,329)"/>
<path d="M0 0 C0.66 0.33 1.32 0.66 2 1 C2 2.98 2 4.96 2 7 C1.34 7 0.68 7 0 7 C-0.33 7.66 -0.66 8.32 -1 9 C-2.32 9 -3.64 9 -5 9 C-4.1875 6.5625 -4.1875 6.5625 -3 4 C-2.01 3.67 -1.02 3.34 0 3 C0 2.01 0 1.02 0 0 Z " fill="#F8BF33" transform="translate(54,135)"/>
<path d="M0 0 C4.51045941 2.46025059 8.18504423 5.60282037 12 9 C8.30581799 9 6.22163822 7.71820705 3 6 C3 5.34 3 4.68 3 4 C2.34 4 1.68 4 1 4 C0.67 2.68 0.34 1.36 0 0 Z " fill="#F8DC8A" transform="translate(387,73)"/>
<path d="M0 0 C0.99 0 1.98 0 3 0 C3 0.66 3 1.32 3 2 C3.66 2.33 4.32 2.66 5 3 C4.236875 3.226875 3.47375 3.45375 2.6875 3.6875 C-0.55904453 5.27302175 -1.28802794 6.90214579 -3 10 C-3.66 10 -4.32 10 -5 10 C-3.86059291 6.14354522 -2.82205934 2.93494171 0 0 Z " fill="#FEEF80" transform="translate(141,164)"/>
<path d="M0 0 C4.59306496 1.4859916 7.43569245 3.85014682 11 7 C9 8 9 8 5.875 7.0625 C4.92625 6.711875 3.9775 6.36125 3 6 C3 5.01 3 4.02 3 3 C2.01 3 1.02 3 0 3 C0 2.01 0 1.02 0 0 Z " fill="#F8D988" transform="translate(376,65)"/>
<path d="M0 0 C0.66 0.33 1.32 0.66 2 1 C1.04901734 2.98270912 0.08899297 4.96108379 -0.875 6.9375 C-1.40867187 8.03964844 -1.94234375 9.14179688 -2.4921875 10.27734375 C-4 13 -4 13 -6 14 C-5.33333333 11.33333333 -4.66666667 8.66666667 -4 6 C-3.34 6 -2.68 6 -2 6 C-1.855625 5.38125 -1.71125 4.7625 -1.5625 4.125 C-1 2 -1 2 0 0 Z " fill="#F1C445" transform="translate(445,358)"/>
<path d="M0 0 C2.55263088 2.274694 3.84144815 4.43202693 5.1875 7.5625 C5.53167969 8.34753906 5.87585938 9.13257813 6.23046875 9.94140625 C7 12 7 12 7 14 C6.34 14 5.68 14 5 14 C4.67 12.68 4.34 11.36 4 10 C3.34 10 2.68 10 2 10 C0.68373308 6.38026598 0 3.90432869 0 0 Z " fill="#F2C652" transform="translate(447,146)"/>
<path d="M0 0 C1.98 1.65 3.96 3.3 6 5 C3.66785852 6.20628008 1.50357861 7.1654738 -1 8 C-1.125 2.25 -1.125 2.25 0 0 Z " fill="#F6C23F" transform="translate(401,86)"/>
<path d="M0 0 C-2.77079887 3.80984844 -6.62868145 4.06840752 -11 5 C-10.4375 3.125 -10.4375 3.125 -9 1 C-2.71428571 -1.35714286 -2.71428571 -1.35714286 0 0 Z " fill="#F7D67D" transform="translate(140,54)"/>
<path d="M0 0 C1.65 0.33 3.3 0.66 5 1 C5 1.66 5 2.32 5 3 C6.32 3.66 7.64 4.32 9 5 C9 5.99 9 6.98 9 8 C8.01 7.67 7.02 7.34 6 7 C6 6.34 6 5.68 6 5 C5.34 5 4.68 5 4 5 C4 4.34 4 3.68 4 3 C2.35 3 0.7 3 -1 3 C-0.67 2.01 -0.34 1.02 0 0 Z " fill="#F9C029" transform="translate(128,441)"/>
<path d="M0 0 C0 0.66 0 1.32 0 2 C-0.99 2.33 -1.98 2.66 -3 3 C-3.99 4.485 -3.99 4.485 -5 6 C-8.49470812 7.83932006 -10.27258257 8.11029455 -14 7 C-13.38511719 6.66226562 -12.77023438 6.32453125 -12.13671875 5.9765625 C-11.32847656 5.53054688 -10.52023438 5.08453125 -9.6875 4.625 C-8.88699219 4.18414062 -8.08648437 3.74328125 -7.26171875 3.2890625 C-1.49090909 0 -1.49090909 0 0 0 Z " fill="#FEEE7F" transform="translate(166,275)"/>
<path d="M0 0 C1.98 0 3.96 0 6 0 C3.37801226 2.15377564 1.35595828 3.40072174 -2 4 C-2 4.66 -2 5.32 -2 6 C-3.65 6.33 -5.3 6.66 -7 7 C-5.1875 4.5 -5.1875 4.5 -3 2 C-2.01 2 -1.02 2 0 2 C0 1.34 0 0.68 0 0 Z " fill="#F4CD62" transform="translate(346,453)"/>
<path d="M0 0 C0.66 0.33 1.32 0.66 2 1 C1.195625 1.61875 0.39125 2.2375 -0.4375 2.875 C-3.03874519 4.74164041 -3.03874519 4.74164041 -4 7 C-6.32156597 7.40729228 -8.6568787 7.74438677 -11 8 C-7.71644638 4.32241995 -4.37221763 2.18610882 0 0 Z " fill="#F5D83B" transform="translate(221,296)"/>
<path d="M0 0 C0 0.66 0 1.32 0 2 C-0.99 2.495 -0.99 2.495 -2 3 C-2 4.32 -2 5.64 -2 7 C-3.98 6.34 -5.96 5.68 -8 5 C-3.16129032 0 -3.16129032 0 0 0 Z " fill="#F6DD4E" transform="translate(304,248)"/>
<path d="M0 0 C-0.94762236 3.27360452 -1.44525055 4.67284007 -4.4375 6.4375 C-5.283125 6.623125 -6.12875 6.80875 -7 7 C-7.99 6.34 -8.98 5.68 -10 5 C-8.71186658 4.16121545 -7.41936744 3.32913217 -6.125 2.5 C-5.40570313 2.0359375 -4.68640625 1.571875 -3.9453125 1.09375 C-2 0 -2 0 0 0 Z " fill="#FEF081" transform="translate(291,202)"/>
<path d="M0 0 C0.33 0.99 0.66 1.98 1 3 C0.67 3.33 0.34 3.66 0 4 C0.061875 5.7015625 0.061875 5.7015625 0.125 7.4375 C0.08375 8.613125 0.0425 9.78875 0 11 C-0.99 11.66 -1.98 12.32 -3 13 C-3 9.7 -3 6.4 -3 3 C-2.34 3 -1.68 3 -1 3 C-0.67 2.01 -0.34 1.02 0 0 Z " fill="#F5C336" transform="translate(39,165)"/>
<path d="M0 0 C5.56890517 0.47986031 10.67067568 1.29915181 16 3 C16 3.66 16 4.32 16 5 C12.28400809 5.20086443 11.22791555 5.1519437 8 3 C5.95415921 2.33841957 5.95415921 2.33841957 3.8125 1.875 C2.554375 1.58625 1.29625 1.2975 0 1 C0 0.67 0 0.34 0 0 Z " fill="#FCE6A9" transform="translate(296,30)"/>
<path d="M0 0 C3.96017943 0.28286996 6.84549333 2.77750666 10 5 C8 6 8 6 5.6171875 5.22265625 C4.71226562 4.83980469 3.80734375 4.45695312 2.875 4.0625 C1.50988281 3.49208984 1.50988281 3.49208984 0.1171875 2.91015625 C-0.58148438 2.60980469 -1.28015625 2.30945313 -2 2 C-1.34 1.34 -0.68 0.68 0 0 Z " fill="#F7D77D" transform="translate(157,459)"/>
<path d="M0 0 C-1.45255699 3.82946843 -3.42895561 5.12050295 -7 7 C-7.66 6.34 -8.32 5.68 -9 5 C-7.87926138 4.16094435 -6.75325453 3.32892169 -5.625 2.5 C-4.99851563 2.0359375 -4.37203125 1.571875 -3.7265625 1.09375 C-2 0 -2 0 0 0 Z " fill="#F7DB46" transform="translate(208,304)"/>
<path d="M0 0 C4.455 0.99 4.455 0.99 9 2 C9 2.66 9 3.32 9 4 C9.66 4 10.32 4 11 4 C11.33 4.99 11.66 5.98 12 7 C7.39104317 5.68315519 3.85859765 3.84801255 0 1 C0 0.67 0 0.34 0 0 Z " fill="#FEEE7D" transform="translate(284,298)"/>
<path d="M0 0 C5.15464734 0.48324819 8.81550319 3.18610761 13 6 C10.34501768 7.0169313 9.30844625 7.13022151 6.640625 6.00390625 C5.85171875 5.52824219 5.0628125 5.05257812 4.25 4.5625 C3.45078125 4.08941406 2.6515625 3.61632812 1.828125 3.12890625 C1.22484375 2.75636719 0.6215625 2.38382813 0 2 C0 1.34 0 0.68 0 0 Z " fill="#F8DC4E" transform="translate(179,239)"/>
<path d="M0 0 C0 0.66 0 1.32 0 2 C-1.64333504 3.03789581 -3.31243867 4.03567924 -5 5 C-5.66 5.66 -6.32 6.32 -7 7 C-8.32 6.34 -9.64 5.68 -11 5 C-2.29032258 0 -2.29032258 0 0 0 Z " fill="#F9DE54" transform="translate(376,206)"/>
<path d="M0 0 C3.32643967 2.98232523 5.29152862 5.86370087 7 10 C6.67 10.66 6.34 11.32 6 12 C2.80825974 10.40412987 1.36211198 7.19368974 0 4 C0 2.68 0 1.36 0 0 Z " fill="#FEED7C" transform="translate(368,181)"/>
<path d="M0 0 C0.625 1.875 0.625 1.875 1 4 C-1 6 -1 6 -3.4375 6.375 C-6 6 -6 6 -7.8125 4 C-8.204375 3.34 -8.59625 2.68 -9 2 C-6.69 2.33 -4.38 2.66 -2 3 C-1.34 2.01 -0.68 1.02 0 0 Z " fill="#F8DC4E" transform="translate(361,336)"/>
<path d="M0 0 C-1.26239712 0.86658615 -2.53527501 1.71792059 -3.8125 2.5625 C-4.87404297 3.27599609 -4.87404297 3.27599609 -5.95703125 4.00390625 C-8 5 -8 5 -11 4 C-9.68 3.67 -8.36 3.34 -7 3 C-7 2.01 -7 1.02 -7 0 C-3.86650268 -1.04449911 -3.01031744 -0.93423645 0 0 Z " fill="#EFC549" transform="translate(369,444)"/>
<path d="M0 0 C0.66 0 1.32 0 2 0 C0.59155282 3.21524305 -1.10344786 5.32183868 -3.625 7.75 C-4.57246094 8.67039062 -4.57246094 8.67039062 -5.5390625 9.609375 C-6.02117187 10.06828125 -6.50328125 10.5271875 -7 11 C-7.66 10.67 -8.32 10.34 -9 10 C-8.27683594 9.29423828 -8.27683594 9.29423828 -7.5390625 8.57421875 C-6.90742188 7.95160156 -6.27578125 7.32898438 -5.625 6.6875 C-4.68527344 5.76517578 -4.68527344 5.76517578 -3.7265625 4.82421875 C-1.81913393 2.91187472 -1.81913393 2.91187472 0 0 Z " fill="#FEF2CD" transform="translate(414,405)"/>
<path d="M0 0 C0.33 1.32 0.66 2.64 1 4 C0.34 4 -0.32 4 -1 4 C-1.4021875 5.175625 -1.4021875 5.175625 -1.8125 6.375 C-3 9 -3 9 -6 11 C-6 9.35 -6 7.7 -6 6 C-5.01 6 -4.02 6 -3 6 C-2.67 5.01 -2.34 4.02 -2 3 C-1.34 3 -0.68 3 0 3 C0 2.01 0 1.02 0 0 Z " fill="#F2C243" transform="translate(431,381)"/>
<path d="M0 0 C1.32 0.33 2.64 0.66 4 1 C0.535 3.97 0.535 3.97 -3 7 C-3.66 5.68 -4.32 4.36 -5 3 C-3.35 3 -1.7 3 0 3 C0 2.01 0 1.02 0 0 Z " fill="#F4C24E" transform="translate(407,409)"/>
<path d="M0 0 C3.32643967 2.98232523 5.29152862 5.86370087 7 10 C6.67 10.66 6.34 11.32 6 12 C4.99157547 10.56839732 3.99352109 9.12948547 3 7.6875 C2.1646875 6.48673828 2.1646875 6.48673828 1.3125 5.26171875 C0 3 0 3 0 0 Z " fill="#FCECB4" transform="translate(50,365)"/>
<path d="M0 0 C0.99 0.33 1.98 0.66 3 1 C3 1.99 3 2.98 3 4 C2.34 4 1.68 4 1 4 C1.33 5.32 1.66 6.64 2 8 C1.34 8 0.68 8 0 8 C0 7.01 0 6.02 0 5 C-0.66 5 -1.32 5 -2 5 C-1.34 3.35 -0.68 1.7 0 0 Z " fill="#F9BF33" transform="translate(38,328)"/>
<path d="M0 0 C0.66 0.33 1.32 0.66 2 1 C0.73058503 4.91402949 -0.51167694 6.79072873 -4 9 C-3.35455571 5.51460083 -1.89865603 2.97180943 0 0 Z " fill="#F8D640" transform="translate(373,317)"/>
<path d="M0 0 C0.226875 0.639375 0.45375 1.27875 0.6875 1.9375 C1.85250896 4.27193661 1.85250896 4.27193661 4.625 4.75 C5.40875 4.8325 6.1925 4.915 7 5 C7 5.66 7 6.32 7 7 C2.56909529 5.79157144 0.01887244 4.48331435 -3 1 C-2.01 0.67 -1.02 0.34 0 0 Z " fill="#F7DC47" transform="translate(333,270)"/>
<path d="M0 0 C3.48897679 0.64610681 6.06769549 2.01871317 9 4 C9.33 4.66 9.66 5.32 10 6 C8.5164999 5.57742724 7.03823576 5.13643678 5.5625 4.6875 C4.73878906 4.44386719 3.91507812 4.20023437 3.06640625 3.94921875 C2.04353516 3.47935547 2.04353516 3.47935547 1 3 C0.67 2.01 0.34 1.02 0 0 Z " fill="#F7DC4B" transform="translate(320,265)"/>
<path d="M0 0 C1.65 0 3.3 0 5 0 C4.67 0.99 4.34 1.98 4 3 C4.66 3 5.32 3 6 3 C6.33 4.65 6.66 6.3 7 8 C4.35247996 5.42215154 2.05567935 3.08351902 0 0 Z " fill="#F3C245" transform="translate(69,392)"/>
<path d="M0 0 C0.75 1.75 0.75 1.75 1 4 C-0.9375 6.25 -0.9375 6.25 -3 8 C-3.33 6.02 -3.66 4.04 -4 2 C-2.68 1.34 -1.36 0.68 0 0 Z " fill="#F6C12F" transform="translate(43,337)"/>
<path d="M0 0 C0.99 0.33 1.98 0.66 3 1 C-1.30769231 5.92307692 -1.30769231 5.92307692 -4.8125 6.3125 C-5.8953125 6.1578125 -5.8953125 6.1578125 -7 6 C-4.8322078 3.72381819 -2.67272281 1.67045176 0 0 Z " fill="#FDED7A" transform="translate(309,190)"/>
<path d="M0 0 C0.66 0 1.32 0 2 0 C2 1.65 2 3.3 2 5 C0.02 5.99 0.02 5.99 -2 7 C-2.125 4.625 -2.125 4.625 -2 2 C-1.34 1.34 -0.68 0.68 0 0 Z " fill="#FABF34" transform="translate(72,120)"/>
<path d="M0 0 C0.99 0.33 1.98 0.66 3 1 C-0.32307692 4.93846154 -0.32307692 4.93846154 -3.75 5.25 C-4.4925 5.1675 -5.235 5.085 -6 5 C-2.25 1.125 -2.25 1.125 0 0 Z " fill="#F3C446" transform="translate(128,59)"/>
<path d="M0 0 C6.625 -0.25 6.625 -0.25 10 2 C6.7 2.33 3.4 2.66 0 3 C0 2.01 0 1.02 0 0 Z " fill="#F8C145" transform="translate(307,35)"/>
<path d="M0 0 C1.69141656 0.08963062 3.37959602 0.24577676 5.0625 0.4375 C6.44115234 0.59025391 6.44115234 0.59025391 7.84765625 0.74609375 C8.55792969 0.82988281 9.26820313 0.91367187 10 1 C10 1.33 10 1.66 10 2 C4.91913204 2.84681133 0.15171623 3.09038099 -5 3 C-4.360625 2.690625 -3.72125 2.38125 -3.0625 2.0625 C-1.06389179 1.1654837 -1.06389179 1.1654837 0 0 Z " fill="#F3BF44" transform="translate(276,474)"/>
<path d="M0 0 C4.92307692 4.30769231 4.92307692 4.30769231 5.3125 7.8125 C5.209375 8.534375 5.10625 9.25625 5 10 C2.08772731 6.71195019 0.50298788 4.40114397 0 0 Z " fill="#EFC448" transform="translate(48,358)"/>
<path d="M0 0 C0.66 0.99 1.32 1.98 2 3 C1.38245741 4.31602523 0.75571258 5.62773556 0.125 6.9375 C-0.22304688 7.66839844 -0.57109375 8.39929688 -0.9296875 9.15234375 C-2 11 -2 11 -4 12 C-4 10.68 -4 9.36 -4 8 C-3.34 8 -2.68 8 -2 8 C-1.34 5.36 -0.68 2.72 0 0 Z " fill="#FEEE80" transform="translate(372,312)"/>
<path d="M0 0 C1.65 0 3.3 0 5 0 C5.33 0.66 5.66 1.32 6 2 C6.66 2.33 7.32 2.66 8 3 C8 3.66 8 4.32 8 5 C2.25 3.125 2.25 3.125 0 2 C0 1.34 0 0.68 0 0 Z " fill="#F9D847" transform="translate(144,164)"/>
<path d="M0 0 C4.43458973 1.3937282 6.87378374 3.60582235 10 7 C6.4124787 5.66749209 3.1635377 4.169283 0 2 C0 1.34 0 0.68 0 0 Z " fill="#FEEDBA" transform="translate(366,58)"/>
<path d="M0 0 C0.99 0 1.98 0 3 0 C3.33 0.99 3.66 1.98 4 3 C2.1875 4.0625 2.1875 4.0625 0 5 C-0.99 4.67 -1.98 4.34 -3 4 C-1.6875 2 -1.6875 2 0 0 Z " fill="#F3C32C" transform="translate(181,46)"/>
<path d="M0 0 C0.66 0.33 1.32 0.66 2 1 C-0.31 3.31 -2.62 5.62 -5 8 C-5.66 7.67 -6.32 7.34 -7 7 C-6.525625 6.566875 -6.05125 6.13375 -5.5625 5.6875 C-3.76313043 3.97690387 -3.76313043 3.97690387 -3 1 C-2.01 0.67 -1.02 0.34 0 0 Z " fill="#FBE3A2" transform="translate(401,418)"/>
<path d="M0 0 C3.05402088 1.52701044 3.65869481 3.95157912 5 7 C5 7.99 5 8.98 5 10 C1.95623822 7.97082548 1.25189126 7.27417715 0 4 C0 2.68 0 1.36 0 0 Z " fill="#F7DC4F" transform="translate(122,308)"/>
<path d="M0 0 C2.31 0.33 4.62 0.66 7 1 C7.33 2.32 7.66 3.64 8 5 C2.25 3.375 2.25 3.375 0 0 Z " fill="#F7DC45" transform="translate(372,295)"/>
<path d="M0 0 C1.32 0 2.64 0 4 0 C3.375 1.9375 3.375 1.9375 2 4 C-1.125 4.75 -1.125 4.75 -4 5 C-2.25 2.5 -2.25 2.5 0 0 Z " fill="#FDEA77" transform="translate(174,268)"/>
<path d="M0 0 C5.75 0.875 5.75 0.875 8 2 C8 2.99 8 3.98 8 5 C4.62496331 3.8141763 2.35277269 2.72426311 0 0 Z " fill="#F6DB41" transform="translate(208,201)"/>
<path d="M0 0 C0.33 0.66 0.66 1.32 1 2 C0.01 2 -0.98 2 -2 2 C-2.33 2.66 -2.66 3.32 -3 4 C-5.97 3.505 -5.97 3.505 -9 3 C-6.23776722 0.23776722 -3.79293383 0.42143709 0 0 Z " fill="#FDF38C" transform="translate(307,195)"/>
<path d="M0 0 C3.55780196 0.60990891 6.6828589 1.5783681 10 3 C10 3.66 10 4.32 10 5 C8.51800098 4.55090939 7.03944764 4.09043436 5.5625 3.625 C4.73878906 3.36976563 3.91507812 3.11453125 3.06640625 2.8515625 C1 2 1 2 0 0 Z " fill="#F9DD50" transform="translate(310,260)"/>
<path d="M0 0 C0.8125 1.625 0.8125 1.625 1 4 C-0.46818136 6.24609835 -2.15852858 8.02378677 -4 10 C-4 5.75354935 -2.18249194 3.61475228 0 0 Z " fill="#FDEB74" transform="translate(130,182)"/>
<path d="M0 0 C0.33 0.66 0.66 1.32 1 2 C0.00390625 3.9453125 0.00390625 3.9453125 -1.4375 6.125 C-1.91058594 6.84945312 -2.38367188 7.57390625 -2.87109375 8.3203125 C-3.24363281 8.87460938 -3.61617187 9.42890625 -4 10 C-4.58203125 8.09765625 -4.58203125 8.09765625 -5 6 C-3.6875 4.4375 -3.6875 4.4375 -2 3 C-1.34 2.01 -0.68 1.02 0 0 Z " fill="#F5DB3F" transform="translate(137,168)"/>
<path d="M0 0 C1.65 0 3.3 0 5 0 C4.67 0.66 4.34 1.32 4 2 C3.34 2 2.68 2 2 2 C2 2.66 2 3.32 2 4 C0.68 4.33 -0.64 4.66 -2 5 C-2 4.34 -2 3.68 -2 3 C-1.34 3 -0.68 3 0 3 C0 2.01 0 1.02 0 0 Z " fill="#F1C543" transform="translate(374,436)"/>
<path d="M0 0 C4 4.75 4 4.75 4 7 C2.68 6.67 1.36 6.34 0 6 C0 4.02 0 2.04 0 0 Z " fill="#F8DA49" transform="translate(137,334)"/>
<path d="M0 0 C1.98 0 3.96 0 6 0 C3.82575883 2.50037734 2.26954202 3.43628586 -1 4 C-0.67 2.68 -0.34 1.36 0 0 Z " fill="#F7DA3B" transform="translate(297,194)"/>
<path d="M0 0 C0.99 0 1.98 0 3 0 C2.3125 1.9375 2.3125 1.9375 1 4 C-1.625 4.75 -1.625 4.75 -4 5 C-2.1875 2.5 -2.1875 2.5 0 0 Z " fill="#F2C240" transform="translate(82,97)"/>
<path d="M0 0 C0.99 0.33 1.98 0.66 3 1 C2.34 2.32 1.68 3.64 1 5 C0.01 4.67 -0.98 4.34 -2 4 C-2 3.01 -2 2.02 -2 1 C-1.34 0.67 -0.68 0.34 0 0 Z " fill="#FCBD38" transform="translate(100,86)"/>
</svg>
